<svg xmlns="http://www.w3.org/2000/svg" viewBox="0 0 1352.08 2028.13"><defs><style>.cls-1{fill:#ba2323;stroke:#000;stroke-miterlimit:10;stroke-width:40px;}.cls-2{fill:#080808;}</style></defs><g id="black"><rect class="cls-1" y="-3.03" width="1352.08" height="2028.13"/><path class="cls-2" d="M1314.78,1018.23a4.06,4.06,0,0,1-4-4.16V920.48l-40-70.7a4.27,4.27,0,0,1-.57-2.13V783.16a4.06,4.06,0,0,1,4-4.16h15.41V589.29A274.4,274.4,0,0,1,1271,565.83v21.79a4.18,4.18,0,0,1-2.13,3.7,3.78,3.78,0,0,1-4.08-.29c-42.47-31.45-60.52-98.63-52.87-142.85,4.25-24.6,16.14-40.71,33.47-45.4,12.68-3.43,23.84-1.69,33.16,5.17,14.83,10.9,21.14,32,23.63,44.19,6.64-10.53,15.13-33-4.81-63.47-14-21.44-34.12-29.36-55.38-37.76-27.49-10.84-55.9-22.06-69.64-63.9-6.49-19.77-1.12-45.7,13.67-66.08,16.46-22.65,41.79-34.52,69.39-32.38,36.85,2.75,56.16,31.34,61.49,55,5.72,25.32-2.66,49.29-21.33,61.06-15.8,10-32.13,9.08-44.78-2.41-12.49-11.32-17.59-29.82-12.11-44,6.34-16.46,18.92-21,27.73-19.92,7.68,1,13.28,5.94,14.25,12.7,1.82,12.46-9.14,19.15-15.18,20.94a3.93,3.93,0,0,1-4.86-2.87,4.2,4.2,0,0,1,2.71-5.13c.44-.14,10.76-3.38,9.55-11.68-.43-2.91-3.39-5.19-7.4-5.7-6.09-.79-14.81,2.67-19.5,14.79-4.17,10.77.11,25.61,10,34.53s22.9,9.58,35.6,1.57c15.91-10,22.68-29.94,17.71-52-4.73-20.9-21.79-46.19-54.39-48.62C1220.72,194.33,1201,214,1192.31,226c-13,17.92-18,41.35-12.47,58.28,12.52,38.15,38,48.2,64.94,58.84,21.47,8.48,43.68,17.24,59.12,40.82,31.53,48.16-1.12,80.6-1.46,80.93a3.75,3.75,0,0,1-4.06.82,4.15,4.15,0,0,1-2.52-3.46c0-.34-3.6-34.12-21.79-47.47-7.37-5.41-16.34-6.71-26.69-3.93-14.17,3.84-24,17.63-27.68,38.84-6.84,39.56,9,98.92,43.45,129.5V554.07c-10.06-15.91-19.72-35.25-22.83-54.3-2.65-16.22-.61-29.06,6.06-38.21a30.7,30.7,0,0,1,20.37-12.31,3.8,3.8,0,0,1,3,1.09,4.27,4.27,0,0,1,1.28,3.06v98a272,272,0,0,0,25.38,33.31,4.27,4.27,0,0,1,1.12,2.91V779h17.23a3.92,3.92,0,0,1,3.62,2.51,4.28,4.28,0,0,1-.74,4.49l-21.17,23.93a3.83,3.83,0,0,1-4.33,1,4.16,4.16,0,0,1-2.49-3.87V787.32h-11.47V846.5l40,70.7a4.25,4.25,0,0,1,.55,2.13v94.73A4.05,4.05,0,0,1,1314.78,1018.23Zm-17.24-230.9v9.21l8.16-9.21Zm-34.39-328.62a23.07,23.07,0,0,0-10.59,8.05c-5.21,7.22-6.71,17.86-4.47,31.62,2.21,13.47,8.1,27.33,15.06,39.9Z"/><path class="cls-2" d="M1294.48,350.4a3.85,3.85,0,0,1-2.94-1.39c-5.67-6.7-12.45-9-21.81-12.27-13.27-4.58-29.79-10.28-51.25-31.26-10-9.75-14.9-21-14.66-33.57.52-27.54,26.06-50.89,27.15-51.86a3.79,3.79,0,0,1,5.56.46,4.32,4.32,0,0,1-.43,5.86c-.25.22-24,21.95-24.4,45.74-.18,10,3.9,19.21,12.14,27.27,20.19,19.74,35.8,25.13,48.34,29.46,6.75,2.33,12.87,4.45,18.34,8.31V301a4,4,0,1,1,7.9,0v45.21a4.15,4.15,0,0,1-2.54,3.88A3.8,3.8,0,0,1,1294.48,350.4Z"/><path class="cls-2" d="M1267.09,257.2a4.06,4.06,0,0,1-3.94-4.17V95H1113.39a4.17,4.17,0,0,1,0-8.33h153.69a4.05,4.05,0,0,1,4,4.16V253A4,4,0,0,1,1267.09,257.2Z"/><path class="cls-2" d="M1098.18,193.66a49.29,49.29,0,0,1-17-2.87c-39.67-14.5-50.29-44.48-60.57-73.47-8-22.45-15.47-43.65-35.78-58.45-29-21.17-50.3-12.12-60.22-5.09,11.54,2.63,31.6,9.27,42,25,6.5,9.84,8.14,21.62,4.9,35-4.44,18.29-19.73,30.83-43,35.32-41.92,8.09-105.58-11-135.38-55.8a4.32,4.32,0,0,1-.27-4.31,3.91,3.91,0,0,1,3.5-2.24H817a263.67,263.67,0,0,1-22.22-19.64h-153a4.17,4.17,0,0,1,0-8.33H796.31a3.86,3.86,0,0,1,2.76,1.19,266,266,0,0,0,31.56,26.77H923.5A3.83,3.83,0,0,1,926.41,88a4.32,4.32,0,0,1,1,3.18,33.5,33.5,0,0,1-11.67,21.49c-8.65,7-20.82,9.18-36.22,6.39-18-3.28-36.37-13.48-51.45-24.09H804.32c29,36.3,85.26,53.07,122.72,45.84,20.1-3.87,33.18-14.24,36.82-29.2,2.64-10.93,1.38-20.4-3.74-28.18-12.7-19.22-44.66-22.94-45-23a4,4,0,0,1-3.28-2.66,4.38,4.38,0,0,1,.78-4.29c.29-.35,31.06-34.82,76.71-1.53C1011.69,68.3,1020,91.74,1028,114.4c10.08,28.44,19.6,55.3,55.75,68.52,16,5.88,38.25.58,55.24-13.16,11.35-9.19,30-30,27.63-66-2.31-34.38-26.27-52.4-46.08-57.38-20.87-5.25-39.76,1.91-49.26,18.68-7.59,13.4-7,27.09,1.48,37.57s22.55,14.9,32.72,10.5c11.49-4.94,14.74-14.17,14-20.58-.48-4.22-2.64-7.35-5.4-7.81-7.94-1.23-11,10-11.07,10.06a3.9,3.9,0,0,1-4.85,2.89,4.22,4.22,0,0,1-2.74-5.14c1.71-6.37,8.07-18,19.85-16,6.41,1,11.14,6.94,12,15,1,9.31-3.27,22.55-18.87,29.26-13.43,5.77-31,.39-41.68-12.79-10.9-13.37-11.71-30.58-2.28-47.25,11.15-19.7,33.85-28.55,57.86-22.5,22.41,5.63,49.5,26,52.11,64.88,2,29.17-9.23,55.86-30.7,73.21C1130,187.58,1113.37,193.66,1098.18,193.66ZM843.06,95c11.92,7.34,25.07,13.56,37.82,15.89,13,2.38,23.13.79,30-4.71A24.36,24.36,0,0,0,918.48,95Z"/><path class="cls-2" d="M1094.7,157.64c-11.55,0-22-5.21-31-15.49-19.88-22.63-25.28-40.06-29.62-54.06-3.07-9.89-5.28-17-11.63-23a4.33,4.33,0,0,1-1.05-4.58,4,4,0,0,1,3.68-2.68h42.85a4.17,4.17,0,0,1,0,8.33H1033.7c3.67,5.78,5.67,12.23,7.88,19.36,4.1,13.23,9.21,29.7,27.91,51,7.65,8.7,16.14,12.94,25.88,12.82,22.6-.48,43.12-25.49,43.31-25.74a3.8,3.8,0,0,1,5.56-.46,4.32,4.32,0,0,1,.44,5.86c-.93,1.15-23,28.09-49.14,28.65Z"/><path class="cls-2" d="M1294.48,214.72a4.06,4.06,0,0,1-4-4.17V66.13H1153.66a4.17,4.17,0,0,1,0-8.33h140.82a4.05,4.05,0,0,1,3.94,4.16V210.55A4.05,4.05,0,0,1,1294.48,214.72Z"/><path class="cls-2" d="M37.31,1018.23a4.05,4.05,0,0,1-3.94-4.16V919.34a4.4,4.4,0,0,1,.55-2.14l40-70.69V787.33H62.44v19.76A4.18,4.18,0,0,1,60,811a3.83,3.83,0,0,1-4.33-1L34.44,786a4.29,4.29,0,0,1-.73-4.5,3.92,3.92,0,0,1,3.61-2.5H54.56V587.62a4.36,4.36,0,0,1,1.12-2.92,271.37,271.37,0,0,0,25.38-33.3v-98a4.23,4.23,0,0,1,1.28-3.06,3.89,3.89,0,0,1,3-1.08,30.69,30.69,0,0,1,20.37,12.31c6.67,9.14,8.7,22,6,38.21-3.1,19-12.76,38.39-22.83,54.3v25.09c34.4-30.58,50.29-89.93,43.45-129.5-3.67-21.21-13.49-35-27.67-38.84C94.36,408,85.39,409.36,78,414.75c-18.19,13.36-21.76,47.14-21.79,47.47a4.14,4.14,0,0,1-2.52,3.47,3.78,3.78,0,0,1-4.06-.82c-.34-.33-33-32.77-1.47-80.93,15.44-23.59,37.65-32.35,59.12-40.82,26.95-10.64,52.41-20.69,64.94-58.84,5.56-16.93.54-40.36-12.47-58.28-8.71-12-28.5-31.7-62.58-29.16-32.58,2.44-49.66,27.72-54.38,48.63-5,22,1.81,42,17.71,52,12.71,8,25.68,7.44,35.6-1.56s14.11-23.76,10-34.53c-4.68-12.12-13.43-15.59-19.5-14.79-4,.5-7,2.78-7.4,5.7-1.22,8.38,9.43,11.64,9.53,11.67a4.19,4.19,0,0,1,2.73,5.13,3.91,3.91,0,0,1-4.85,2.88c-6-1.79-17-8.49-15.2-20.94,1-6.76,6.58-11.74,14.27-12.7,8.85-1,21.37,3.47,27.72,19.92,5.48,14.15.39,32.65-12.11,44-12.67,11.47-29,12.36-44.79,2.41-18.66-11.78-27-35.75-21.32-61.06,5.33-23.65,24.64-52.23,61.49-55,27.59-2.14,52.93,9.73,69.38,32.38,14.8,20.37,20.17,46.3,13.68,66.07-13.74,41.85-42.15,53.07-69.63,63.91-21.28,8.39-41.37,16.32-55.4,37.76-19.93,30.44-11.44,52.94-4.8,63.47C52.37,440,58.68,418.86,73.5,408c9.33-6.87,20.49-8.59,33.17-5.18,17.33,4.69,29.22,20.82,33.48,45.41C147.8,492.4,129.75,559.58,87.26,591a3.74,3.74,0,0,1-4.08.29,4.21,4.21,0,0,1-2.12-3.69V565.84A274.4,274.4,0,0,1,62.44,589.3V779H77.85a4.05,4.05,0,0,1,3.94,4.16v64.49a4.26,4.26,0,0,1-.56,2.13l-40,70.7v93.58A4.05,4.05,0,0,1,37.31,1018.23Zm9.08-230.9,8.16,9.21v-9.21ZM88.94,458.71v79.57c7-12.57,12.86-26.44,15.06-39.9,2.24-13.76.74-24.4-4.47-31.62A23,23,0,0,0,88.94,458.71Z"/><path class="cls-2" d="M57.62,350.4a3.89,3.89,0,0,1-1.41-.28,4.15,4.15,0,0,1-2.54-3.88V301a4,4,0,1,1,7.9,0v36.12c5.48-3.87,11.59-6,18.35-8.31,12.53-4.33,28.14-9.72,48.33-29.46,8.25-8.07,12.34-17.26,12.15-27.3-.46-23.85-24.16-45.49-24.4-45.71a4.31,4.31,0,0,1-.43-5.86,3.79,3.79,0,0,1,5.55-.46c1.09,1,26.63,24.32,27.15,51.86.24,12.53-4.69,23.82-14.66,33.57-21.46,21-38,26.68-51.25,31.26C73,340,66.24,342.31,60.55,349A3.83,3.83,0,0,1,57.62,350.4Z"/><path class="cls-2" d="M85,257.2A4.06,4.06,0,0,1,81.05,253V90.86A4.05,4.05,0,0,1,85,86.7h153.7a4.17,4.17,0,0,1,0,8.33H88.93V253A4,4,0,0,1,85,257.2Z"/><path class="cls-2" d="M253.9,193.66c-15.18,0-31.76-6.08-45.62-17.29-21.46-17.37-32.66-44.05-30.69-73.21,2.61-38.89,29.7-59.27,52.11-64.89,24-6,46.71,2.8,57.86,22.51,9.43,16.66,8.61,33.88-2.28,47.24C274.55,121.2,257,126.6,243.6,120.82c-15.59-6.71-19.91-20-18.87-29.26.91-8.11,5.63-14,12-15,11.85-1.93,18.15,9.65,19.85,16a4.18,4.18,0,0,1-2.72,5.12A3.93,3.93,0,0,1,249,94.8c-.13-.46-3.15-11.33-11.05-10.07-2.77.45-4.93,3.58-5.41,7.81-.72,6.39,2.52,15.63,14,20.58,10.2,4.37,24.27-.14,32.72-10.51s9.08-24.17,1.49-37.56c-9.5-16.77-28.37-23.93-49.26-18.68-19.81,5-43.77,23-46.08,57.38-2.42,36.05,16.28,56.83,27.64,66,17,13.75,39.17,19,55.23,13.17,36.15-13.21,45.67-40.09,55.75-68.53,8-22.66,16.34-46.09,38.69-62.38,45.64-33.27,76.39,1.2,76.7,1.55a4.31,4.31,0,0,1,.77,4.28A4,4,0,0,1,437,60.52c-.33,0-32.34,3.8-45,23-5.12,7.76-6.36,17.24-3.72,28.16,3.64,14.95,16.71,25.32,36.82,29.2,37.48,7.21,93.74-9.55,122.72-45.85H524c-15.09,10.61-33.42,20.81-51.47,24.09-15.38,2.79-27.56.65-36.21-6.39-10.47-8.51-11.63-21-11.68-21.49a4.29,4.29,0,0,1,1-3.18,3.84,3.84,0,0,1,2.91-1.35h92.88A263.31,263.31,0,0,0,553,59.93a3.82,3.82,0,0,1,2.77-1.19H710.35a4.17,4.17,0,0,1,0,8.33h-153a268.74,268.74,0,0,1-22.24,19.64h20.66A3.9,3.9,0,0,1,559.27,89a4.32,4.32,0,0,1-.27,4.3c-29.79,44.83-93.42,63.89-135.38,55.8-23.3-4.48-38.58-17-43-35.32-3.24-13.37-1.59-25.15,4.9-35,10.33-15.65,30.35-22.31,41.89-24.94-10-7-31.3-16-60.16,5.08-20.3,14.81-27.82,36-35.77,58.45-10.28,29-20.92,59-60.57,73.47A49.78,49.78,0,0,1,253.9,193.66ZM433.6,95a24.47,24.47,0,0,0,7.64,11.18c6.84,5.5,16.92,7.09,30,4.71C484,108.59,497.13,102.37,509,95Z"/><path class="cls-2" d="M257.4,157.64h-.82c-26.1-.56-48.23-27.5-49.15-28.65a4.3,4.3,0,0,1,.44-5.86,3.8,3.8,0,0,1,5.55.45c.21.25,20.79,25.28,43.35,25.75,9.42.17,18.2-4.11,25.85-12.82,18.7-21.3,23.81-37.77,27.92-51,2.2-7.13,4.21-13.58,7.87-19.36H284.19a4.17,4.17,0,0,1,0-8.33H327a4,4,0,0,1,3.68,2.68,4.35,4.35,0,0,1-1,4.58c-6.35,6-8.57,13.13-11.63,23-4.34,14-9.75,31.43-29.63,54.06C279.36,152.43,268.93,157.64,257.4,157.64Z"/><path class="cls-2" d="M57.62,214.72a4.06,4.06,0,0,1-3.95-4.17V62a4.06,4.06,0,0,1,3.95-4.16H198.44a4.17,4.17,0,0,1,0,8.33H61.56V210.55A4.07,4.07,0,0,1,57.62,214.72Z"/><path class="cls-2" d="M102.82,1839.81q-3.07,0-6.19-.23c-36.84-2.75-56.16-31.34-61.49-55-5.72-25.31,2.66-49.28,21.33-61,15.81-10,32.13-9.07,44.79,2.41,12.48,11.33,17.58,29.82,12.11,44-6.35,16.46-18.9,21.06-27.73,19.91-7.69-.95-13.28-5.94-14.26-12.69-1.82-12.46,9.14-19.14,15.19-20.94a3.92,3.92,0,0,1,4.85,2.87,4.2,4.2,0,0,1-2.71,5.13c-.43.14-10.75,3.39-9.55,11.67.43,2.91,3.4,5.2,7.41,5.7,6,.74,14.81-2.66,19.5-14.79,4.16-10.75-.12-25.59-9.94-34.51s-22.92-9.59-35.62-1.58c-15.9,10-22.68,29.92-17.7,52,4.72,20.9,21.79,46.19,54.38,48.62,34.2,2.59,53.87-17.17,62.58-29.16,13-17.92,18-41.34,12.47-58.27-12.52-38.15-38-48.2-64.94-58.84-21.48-8.48-43.68-17.24-59.12-40.81-31.54-48.16,1.12-80.61,1.46-80.94a3.8,3.8,0,0,1,4.06-.81,4.14,4.14,0,0,1,2.52,3.46c0,.34,3.6,34.12,21.79,47.46,7.37,5.41,16.35,6.72,26.69,3.92,14.17-3.83,24-17.61,27.67-38.83,6.84-39.55-9.05-98.92-43.45-129.51v25.1c10.07,15.92,19.73,35.25,22.83,54.3,2.65,16.21.61,29.07-6,38.2a30.68,30.68,0,0,1-20.37,12.32,3.92,3.92,0,0,1-3-1.07,4.27,4.27,0,0,1-1.28-3.07v-98a272.88,272.88,0,0,0-25.38-33.29,4.27,4.27,0,0,1-1.12-2.91V1249.13H37.3a3.91,3.91,0,0,1-3.61-2.5,4.29,4.29,0,0,1,.73-4.5l21.18-23.92a3.82,3.82,0,0,1,4.33-1,4.17,4.17,0,0,1,2.49,3.87v19.76H73.88v-59.18l-40-70.72a4.39,4.39,0,0,1-.55-2.13v-94.71a4,4,0,1,1,7.89,0v93.57l40,70.72a4.26,4.26,0,0,1,.56,2.13V1245a4.05,4.05,0,0,1-4,4.16H62.43v189.7A277.84,277.84,0,0,1,81,1462.31v-21.8a4.18,4.18,0,0,1,2.13-3.69,3.74,3.74,0,0,1,4.08.28c42.49,31.46,60.53,98.64,52.88,142.87-4.25,24.59-16.14,40.7-33.48,45.38-12.68,3.42-23.82,1.68-33.16-5.17-14.82-10.9-21.13-32-23.62-44.18-6.64,10.52-15.14,33,4.8,63.47,14,21.43,34.13,29.36,55.39,37.75,27.48,10.85,55.9,22.07,69.63,63.91,6.5,19.77,1.12,45.7-13.66,66.07C150.81,1828.14,128,1839.81,102.82,1839.81Zm-13.88-350v79.59a23.16,23.16,0,0,0,10.59-8c5.21-7.23,6.72-17.86,4.47-31.62C101.8,1516.28,95.89,1502.42,88.94,1489.84Zm-42.55-249h8.16v-9.21Z"/><path class="cls-2" d="M118.56,1809.09a3.87,3.87,0,0,1-3-1.46,4.31,4.31,0,0,1,.44-5.86c.23-.23,23.95-21.94,24.4-45.73.17-10-3.91-19.21-12.16-27.26-20.19-19.76-35.8-25.15-48.33-29.48C73.16,1697,67,1694.85,61.56,1691v36.12a4,4,0,1,1-7.89,0V1681.9A4.17,4.17,0,0,1,56.2,1678a3.83,3.83,0,0,1,4.35,1.11c5.68,6.69,12.45,9,21.8,12.26,13.28,4.58,29.8,10.28,51.25,31.28,10,9.75,14.91,21,14.67,33.56-.53,27.54-26.07,50.88-27.15,51.85A3.76,3.76,0,0,1,118.56,1809.09Z"/><path class="cls-2" d="M238.69,1941.43H85a4.05,4.05,0,0,1-3.94-4.17V1775.09a4,4,0,1,1,7.89,0v158H238.69a4.17,4.17,0,0,1,0,8.32Z"/><path class="cls-2" d="M244.47,1991.75a60.07,60.07,0,0,1-14.77-1.88c-22.41-5.63-49.5-26-52.11-64.88-2-29.18,9.24-55.86,30.7-73.23,19.3-15.6,43.87-21.23,62.6-14.4,39.66,14.49,50.29,44.47,60.57,73.47,8,22.44,15.47,43.64,35.78,58.44,28.85,21,50.17,12.08,60.16,5.08-11.55-2.63-31.55-9.28-41.89-24.94-6.5-9.83-8.15-21.62-4.9-35,4.44-18.29,19.72-30.83,43-35.32,41.9-8,105.58,11,135.39,55.8a4.35,4.35,0,0,1,.27,4.3,3.92,3.92,0,0,1-3.5,2.26H535.13a268.74,268.74,0,0,1,22.24,19.64h153a4.17,4.17,0,0,1,0,8.33H555.79a3.89,3.89,0,0,1-2.76-1.18,262.91,262.91,0,0,0-31.57-26.78H428.6a3.82,3.82,0,0,1-2.9-1.35,4.34,4.34,0,0,1-1-3.18c.05-.53,1.21-13,11.67-21.5,8.66-7,20.84-9.16,36.22-6.39,18,3.28,36.37,13.47,51.45,24.09h23.77c-29-36.3-85.24-53-122.73-45.85-20.09,3.87-33.17,14.24-36.8,29.2-2.65,10.92-1.39,20.4,3.72,28.17,12.65,19.19,44.67,22.95,45,23a4,4,0,0,1,3.28,2.66,4.38,4.38,0,0,1-.77,4.28c-.31.36-31.05,34.83-76.7,1.54-22.35-16.28-30.66-39.72-38.69-62.37-10.09-28.45-19.61-55.31-55.76-68.53-16-5.87-38.23-.58-55.22,13.16-11.36,9.18-30.06,30-27.65,66,2.31,34.38,26.27,52.4,46.09,57.38,20.89,5.26,39.75-1.9,49.26-18.68,7.58-13.39,7-27.09-1.49-37.57s-22.51-14.89-32.72-10.51c-11.5,5-14.73,14.18-14,20.59.47,4.22,2.64,7.35,5.41,7.81,7.92,1.34,11-10,11.06-10.07a3.93,3.93,0,0,1,4.85-2.88,4.21,4.21,0,0,1,2.74,5.14c-1.71,6.37-8,18-19.85,16-6.4-1-11.13-7-12-15.05-1-9.3,3.29-22.54,18.87-29.26,13.41-5.79,30.95-.4,41.69,12.8,10.88,13.37,11.72,30.59,2.27,47.26C278.74,1983,262.67,1991.75,244.47,1991.75Zm189.1-58.64H509c-11.91-7.35-25.05-13.57-37.81-15.89-13.11-2.39-23.23-.77-30.06,4.79A24.3,24.3,0,0,0,433.57,1933.11Z"/><path class="cls-2" d="M327,1970.33H284.17a4.17,4.17,0,0,1,0-8.33h34.22c-3.67-5.78-5.67-12.23-7.87-19.37-4.1-13.23-9.22-29.7-27.92-51-7.65-8.69-16.43-12.77-25.85-12.82-22.55.47-43.14,25.49-43.34,25.75a3.83,3.83,0,0,1-5.56.45,4.33,4.33,0,0,1-.44-5.86c.93-1.15,23.05-28.1,49.15-28.65,11.82,0,22.58,5,31.82,15.47,19.88,22.64,25.29,40.07,29.62,54.07,3.07,9.88,5.29,17,11.64,23a4.33,4.33,0,0,1,1.05,4.58A4,4,0,0,1,327,1970.33Z"/><path class="cls-2" d="M198.44,1970.33H57.62a4.06,4.06,0,0,1-3.95-4.16V1817.58a4,4,0,1,1,7.89,0V1962H198.44a4.17,4.17,0,0,1,0,8.33Z"/><path class="cls-2" d="M1249.27,1839.81c-25.2,0-48-11.67-63.2-32.63-14.81-20.36-20.16-46.28-13.68-66.06,13.75-41.85,42.15-53.07,69.64-63.91,21.27-8.4,41.36-16.33,55.39-37.75,20.06-30.63,11.49-53.08,4.81-63.54-2.48,12.17-8.78,33.33-23.63,44.25-9.33,6.85-20.48,8.59-33.17,5.16-17.33-4.68-29.21-20.79-33.47-45.38-7.65-44.21,10.39-111.4,52.88-142.86a3.7,3.7,0,0,1,4.07-.28,4.16,4.16,0,0,1,2.14,3.68v21.8a275.33,275.33,0,0,1,18.61-23.47v-189.7h-15.41a4.06,4.06,0,0,1-3.94-4.16v-64.49a4.2,4.2,0,0,1,.56-2.12l40-70.73v-93.57a4,4,0,1,1,7.9,0v94.72a4.29,4.29,0,0,1-.56,2.13l-40,70.71v59.18h11.47V1221a4.17,4.17,0,0,1,2.49-3.87,3.8,3.8,0,0,1,4.33,1l21.18,23.93a4.32,4.32,0,0,1,.74,4.49,4,4,0,0,1-3.62,2.5h-17.24v191.38a4.33,4.33,0,0,1-1.12,2.91,274.51,274.51,0,0,0-25.38,33.32v98a4.25,4.25,0,0,1-1.28,3.07,4,4,0,0,1-3,1.08,30.65,30.65,0,0,1-20.38-12.32c-6.66-9.13-8.71-22-6.06-38.21,3.12-19,12.77-38.38,22.83-54.3v-25.09c-34.4,30.57-50.29,90-43.44,129.51,3.67,21.2,13.5,35,27.67,38.83,10.35,2.8,19.34,1.47,26.71-3.93,18.22-13.4,21.74-47.12,21.77-47.46a4.14,4.14,0,0,1,2.51-3.46,3.84,3.84,0,0,1,4.07.82c.34.32,33,32.76,1.47,80.93-15.44,23.58-37.65,32.34-59.12,40.82-27,10.64-52.42,20.68-65,58.84-5.56,16.92-.54,40.34,12.48,58.27,8.71,12,28.38,31.78,62.56,29.15,32.6-2.43,49.67-27.7,54.39-48.61,5-22.05-1.8-42-17.71-52-12.69-8-25.68-7.45-35.61,1.57s-14.11,23.76-9.94,34.51c4.68,12.14,13.46,15.53,19.51,14.8,4-.5,7-2.8,7.39-5.71,1.23-8.36-9.43-11.62-9.53-11.66a4.18,4.18,0,0,1-2.73-5.12,3.93,3.93,0,0,1,4.86-2.88c6,1.79,17,8.48,15.19,20.93-1,6.76-6.58,11.74-14.26,12.69-8.81,1.15-21.38-3.44-27.73-19.91-5.48-14.15-.39-32.64,12.11-44,12.66-11.48,29-12.36,44.78-2.42,18.68,11.78,27.05,35.75,21.33,61-5.34,23.66-24.64,52.24-61.49,55C1253.39,1839.73,1251.32,1839.81,1249.27,1839.81Zm13.88-350c-7,12.57-12.85,26.44-15.06,39.9-2.25,13.83-.73,24.51,4.54,31.72a23,23,0,0,0,10.52,8v-79.6Zm34.39-249h8.16l-8.16-9.21Z"/><path class="cls-2" d="M1233.53,1809.09a3.74,3.74,0,0,1-2.56-1c-1.08-1-26.63-24.31-27.15-51.85-.24-12.53,4.7-23.81,14.66-33.58,21.46-21,38-26.68,51.25-31.26,9.36-3.24,16.14-5.57,21.81-12.26a3.81,3.81,0,0,1,4.34-1.11,4.15,4.15,0,0,1,2.54,3.88v45.21a4,4,0,1,1-7.9,0V1691c-5.47,3.87-11.59,6-18.34,8.31-12.54,4.33-28.15,9.72-48.34,29.46-8.25,8.07-12.33,17.26-12.14,27.31.45,23.85,24.15,45.47,24.39,45.7a4.31,4.31,0,0,1,.44,5.86A3.85,3.85,0,0,1,1233.53,1809.09Z"/><path class="cls-2" d="M1267.09,1941.43H1113.4a4.17,4.17,0,0,1,0-8.33h149.75v-158a4,4,0,1,1,7.9,0v162.17A4.07,4.07,0,0,1,1267.09,1941.43Z"/><path class="cls-2" d="M1107.62,1991.75c-18.2,0-34.26-8.79-43.09-24.37-9.44-16.67-8.61-33.9,2.28-47.26,10.73-13.19,28.27-18.58,41.68-12.8,15.6,6.72,19.91,20,18.88,29.26-.9,8.1-5.63,14-12,15.05-11.75,1.94-18.14-9.64-19.85-16a4.17,4.17,0,0,1,2.73-5.12,3.92,3.92,0,0,1,4.86,2.85c.13.47,3.2,11.33,11.06,10.08,2.77-.46,4.93-3.58,5.41-7.81.72-6.41-2.53-15.63-14-20.59-10.19-4.38-24.26.13-32.72,10.51s-9.07,24.18-1.49,37.57c9.5,16.78,28.37,23.94,49.26,18.68,19.81-5,43.77-23,46.08-57.38,2.42-36.06-16.28-56.85-27.64-66-17-13.75-39.18-19-55.22-13.16-36.15,13.21-45.68,40.08-55.75,68.53-8,22.65-16.34,46.08-38.69,62.37-45.65,33.29-76.4-1.18-76.71-1.54a4.31,4.31,0,0,1-.77-4.28,4,4,0,0,1,3.27-2.66c.33,0,32.35-3.8,45-23,5.12-7.77,6.37-17.25,3.72-28.17-3.64-15-16.7-25.33-36.8-29.2-37.48-7.18-93.76,9.56-122.73,45.85H828.1c15.08-10.62,33.4-20.81,51.45-24.09,15.37-2.78,27.55-.63,36.22,6.39a33.51,33.51,0,0,1,11.67,21.5,4.29,4.29,0,0,1-1,3.18,3.91,3.91,0,0,1-2.91,1.35H830.65a262.05,262.05,0,0,0-31.57,26.78,3.81,3.81,0,0,1-2.76,1.18H641.75a4.17,4.17,0,0,1,0-8.33h153A267,267,0,0,1,817,1941.43H796.32a3.91,3.91,0,0,1-3.5-2.26,4.32,4.32,0,0,1,.27-4.3c29.8-44.84,93.48-63.89,135.39-55.8,23.31,4.49,38.58,17,43,35.32,3.24,13.37,1.6,25.16-4.91,35-10.32,15.66-30.34,22.31-41.88,24.94,10,7,31.32,16,60.16-5.08,20.31-14.8,27.82-36,35.78-58.44,10.28-29,20.91-59,60.57-73.47,18.74-6.83,43.3-1.19,62.6,14.4,21.47,17.38,32.67,44.06,30.7,73.23-2.61,38.88-29.7,59.26-52.11,64.88A59,59,0,0,1,1107.62,1991.75Zm-264.55-58.64h75.41a24.31,24.31,0,0,0-7.62-11.18c-6.86-5.49-16.92-7.1-30-4.71C868.13,1919.54,855,1925.76,843.07,1933.11Z"/><path class="cls-2" d="M1067.92,1970.33h-42.85a4,4,0,0,1-3.67-2.68,4.32,4.32,0,0,1,1.05-4.58c6.35-6,8.56-13.14,11.62-23,4.34-14,9.75-31.43,29.62-54.07,9.25-10.52,20.06-15.52,31.83-15.47,26.1.56,48.23,27.5,49.14,28.65a4.3,4.3,0,0,1-.43,5.86,3.82,3.82,0,0,1-5.56-.45c-.2-.26-20.79-25.28-43.34-25.75-9.53,0-18.22,4.13-25.86,12.82-18.7,21.29-23.8,37.76-27.91,51-2.21,7.14-4.21,13.59-7.88,19.37h34.23a4.17,4.17,0,0,1,0,8.33Z"/><path class="cls-2" d="M1294.48,1970.33H1153.66a4.17,4.17,0,0,1,0-8.33h136.87V1817.58a4,4,0,1,1,7.89,0v148.59A4.06,4.06,0,0,1,1294.48,1970.33Z"/><path class="cls-2" d="M676,1676a3.73,3.73,0,0,1-1.59-.36L406.31,1550.16a4.16,4.16,0,0,1-2.34-3.8V481.79a4.19,4.19,0,0,1,2.34-3.81L674.44,352.52a3.78,3.78,0,0,1,3.19,0L945.77,478a4.19,4.19,0,0,1,2.36,3.81V1546.36a4.16,4.16,0,0,1-2.36,3.8L677.63,1675.61A3.7,3.7,0,0,1,676,1676ZM411.85,1543.66,676,1667.26l264.21-123.6V484.5L676,360.88,411.85,484.5Z"/><path class="cls-2" d="M676.05,1900.66a4,4,0,0,1-1.61-.36l-156.19-73.09a4.17,4.17,0,0,1-2.35-3.8v-654a4,4,0,1,1,7.89,0v651.34l152.26,71.23,152.25-71.23V1169.38a4,4,0,1,1,7.9,0v654a4.17,4.17,0,0,1-2.35,3.8L677.64,1900.3A3.76,3.76,0,0,1,676.05,1900.66Z"/><path class="cls-2" d="M832.25,862.93a4.05,4.05,0,0,1-4-4.16V207.43L676,136.19,523.79,207.43v651.3a4,4,0,1,1-7.9,0v-654a4.18,4.18,0,0,1,2.35-3.8l156.2-73.09a3.71,3.71,0,0,1,3.19,0l156.21,73.09a4.18,4.18,0,0,1,2.34,3.8V858.77A4,4,0,0,1,832.25,862.93Z"/><path class="cls-2" d="M676,1512.29a3.75,3.75,0,0,1-1.77-.45l-361.42-192a4.2,4.2,0,0,1-2.17-3.72V712a4.19,4.19,0,0,1,2.17-3.71l361.42-192a3.76,3.76,0,0,1,3.54,0l361.46,192a4.22,4.22,0,0,1,2.18,3.71v604.18a4.23,4.23,0,0,1-2.18,3.72l-361.46,192A3.67,3.67,0,0,1,676,1512.29ZM318.55,1313.61,676,1503.47l357.51-189.86V714.55L676,524.66,318.55,714.55Z"/><path class="cls-2" d="M676.05,1243c-119.63,0-216.94-102.68-216.94-228.91s97.31-228.91,216.94-228.91S893,887.84,893,1014.07,795.67,1243,676.05,1243Zm0-449.5c-115.27,0-209.06,99-209.06,220.59s93.79,220.59,209.06,220.59,209.06-99,209.06-220.59S791.32,793.48,676.05,793.48Z"/><path d="M811.38,1286.74c15.65-9.72,17.07-28.68,17.78-42.2s-18-28.52-18-28.52a10.28,10.28,0,0,0,2.85-6c.63-4.11-.32-4.42-13-11.38s-19-27.18-19-27.18v-13.59h3.8c11.38-6.95-1.9-14.86-1.9-14.86,2.84-11.38-8.22-17.7-8.22-17.7v-9.48h-6.39v-19.6s22.12-1.9,24-8.85a23.91,23.91,0,0,0,0-12.65c34.14-29.08,18.52-104.31,18.52-104.31,53.3-76.49-5.25-116.95-5.25-116.95C827.51,804.78,779.46,801,779.46,801c-10.12-51.21-65.75-68.91-65.75-71.44s3.8-17.06,12-28.92,3.17-15.17,3.17-15.17c-26.56-4.27-55.64,35.24-55.64,35.24s-82.18,6.33-73.33,43c0,0-36.35,21.65-35.87,56.27S535.6,890.13,529,897.71s-20.39,15.65-17.55,22.76,22.29,21.81,22.76,28.45,6.64,9.48,6.64,9.48,3.32,16.12,2.37,23.71,9,9,12.33,3.79l12.8,3.1s3.32,9.74,11.38,0,9-17.32,18.49-17.8,26.08-3.32,17.07-23.7,15.17-44.57,20.86-47.89,22.76-11.85,24.66-16.12-3.32,17.54-8.54,27S586.33,1040,585.38,1049s-11.06,24.81-1.9,43.46c0,0,5.69,4.43,11.38,3.48v19.92h-7.27v9.48s-11.06,6.32-8.21,17.7c0,0-13.28,7.91-1.9,14.86h3.79v13.59s-6.32,20.23-19,27.18-13.6,7.27-13,11.38a10.24,10.24,0,0,0,2.84,6s-18.73,15-18,28.52,2.14,32.48,17.78,42.2c0,0-30.81,8.06-29.63,14.7s9.25,12.8,19.2,17.3,10.91,6.64,10.91,6.64v11.54H810.91v-11.54s.94-2.13,10.9-6.64,18-10.66,19.2-17.3S811.38,1286.74,811.38,1286.74Z"/></g></svg>