<?xml version="1.0" encoding="UTF-8" standalone="no"?>
<!DOCTYPE svg PUBLIC "-//W3C//DTD SVG 1.1//EN" "http://www.w3.org/Graphics/SVG/1.1/DTD/svg11.dtd">
<svg width="100%" height="100%" viewBox="0 0 7332 6773" version="1.1" xmlns="http://www.w3.org/2000/svg" xmlns:xlink="http://www.w3.org/1999/xlink" xml:space="preserve" xmlns:serif="http://www.serif.com/" style="fill-rule:evenodd;clip-rule:evenodd;stroke-linecap:round;stroke-linejoin:round;stroke-miterlimit:1.5;">
    <g transform="matrix(3.6818,0,0,3.46775,17.6729,-1921.33)">
        <rect id="MESA-DEL-LOGO" serif:id="MESA DEL LOGO" x="-4.8" y="554.057" width="1991.31" height="1952.91" style="fill:none;"/>
        <g id="MESA-DEL-LOGO1" serif:id="MESA DEL LOGO">
            <g id="LOGO" transform="matrix(0.5942,0,0,0.62376,381.333,445.046)">
                <g transform="matrix(0.357547,-0.361627,0.357547,0.361627,-652.926,1992.84)">
                    <rect x="746.737" y="183.662" width="3692.15" height="3692.15" style="fill:rgb(186,35,35);"/>
                </g>
                <g id="Logo" transform="matrix(1,0,0,1,5.88045,277.966)">
                    <g id="QUEEN" transform="matrix(0.988623,0,0,0.84035,28.9379,270.39)">
                        <g id="QUEEN1" serif:id="QUEEN" transform="matrix(0.390081,0,0,1.87749,75.4173,-3277.6)">
                            <g transform="matrix(1117.79,0,0,235.181,312.692,3028.89)">
                                <path d="M0.688,-0L0.471,-0L0.471,0.1L0.261,0.1L0.261,-0L0.045,-0L0.045,-0.65L0.688,-0.65L0.688,-0ZM0.478,-0.21L0.478,-0.44L0.255,-0.44L0.255,-0.21L0.478,-0.21Z" style="fill-rule:nonzero;"/>
                            </g>
                            <g transform="matrix(1117.79,0,0,235.181,1129.8,3028.89)">
                                <path d="M0.701,-0L0.121,-0L0.121,-0.44L0.046,-0.44L0.046,-0.65L0.331,-0.65L0.331,-0.21L0.491,-0.21L0.491,-0.65L0.701,-0.65L0.701,-0Z" style="fill-rule:nonzero;"/>
                            </g>
                            <g transform="matrix(1117.79,0,0,235.181,1967.02,3028.89)">
                                <path d="M0.626,-0L0.046,-0L0.046,-0.21L0.121,-0.21L0.121,-0.264L0.182,-0.325L0.121,-0.385L0.121,-0.44L0.046,-0.44L0.046,-0.65L0.626,-0.65L0.626,-0.44L0.364,-0.44L0.479,-0.325L0.364,-0.21L0.626,-0.21L0.626,-0Z" style="fill-rule:nonzero;"/>
                            </g>
                            <g transform="matrix(1117.79,0,0,235.181,2719.3,3028.89)">
                                <path d="M0.626,-0L0.046,-0L0.046,-0.21L0.121,-0.21L0.121,-0.264L0.182,-0.325L0.121,-0.385L0.121,-0.44L0.046,-0.44L0.046,-0.65L0.626,-0.65L0.626,-0.44L0.364,-0.44L0.479,-0.325L0.364,-0.21L0.626,-0.21L0.626,-0Z" style="fill-rule:nonzero;"/>
                            </g>
                            <g transform="matrix(1117.79,0,0,235.181,3471.57,3028.89)">
                                <path d="M0.701,-0L0.491,-0L0.491,-0.44L0.331,-0.44L0.331,-0L0.046,-0L0.046,-0.21L0.121,-0.21L0.121,-0.65L0.701,-0.65L0.701,-0Z" style="fill-rule:nonzero;"/>
                            </g>
                        </g>
                        <g id="QUEEN2" serif:id="QUEEN" transform="matrix(0.390081,0,0,1.87749,75.4173,-3266.47)">
                            <g transform="matrix(1117.79,0,0,235.181,312.692,3028.89)">
                                <path d="M0.688,-0L0.471,-0L0.471,0.1L0.261,0.1L0.261,-0L0.045,-0L0.045,-0.65L0.688,-0.65L0.688,-0ZM0.478,-0.21L0.478,-0.44L0.255,-0.44L0.255,-0.21L0.478,-0.21Z" style="fill-rule:nonzero;"/>
                            </g>
                            <g transform="matrix(1117.79,0,0,235.181,1129.8,3028.89)">
                                <path d="M0.701,-0L0.121,-0L0.121,-0.44L0.046,-0.44L0.046,-0.65L0.331,-0.65L0.331,-0.21L0.491,-0.21L0.491,-0.65L0.701,-0.65L0.701,-0Z" style="fill-rule:nonzero;"/>
                            </g>
                            <g transform="matrix(1117.79,0,0,235.181,1967.02,3028.89)">
                                <path d="M0.626,-0L0.046,-0L0.046,-0.21L0.121,-0.21L0.121,-0.264L0.182,-0.325L0.121,-0.385L0.121,-0.44L0.046,-0.44L0.046,-0.65L0.626,-0.65L0.626,-0.44L0.364,-0.44L0.479,-0.325L0.364,-0.21L0.626,-0.21L0.626,-0Z" style="fill-rule:nonzero;"/>
                            </g>
                            <g transform="matrix(1117.79,0,0,235.181,2719.3,3028.89)">
                                <path d="M0.626,-0L0.046,-0L0.046,-0.21L0.121,-0.21L0.121,-0.264L0.182,-0.325L0.121,-0.385L0.121,-0.44L0.046,-0.44L0.046,-0.65L0.626,-0.65L0.626,-0.44L0.364,-0.44L0.479,-0.325L0.364,-0.21L0.626,-0.21L0.626,-0Z" style="fill-rule:nonzero;"/>
                            </g>
                            <g transform="matrix(1117.79,0,0,235.181,3471.57,3028.89)">
                                <path d="M0.701,-0L0.491,-0L0.491,-0.44L0.331,-0.44L0.331,-0L0.046,-0L0.046,-0.21L0.121,-0.21L0.121,-0.65L0.701,-0.65L0.701,-0Z" style="fill-rule:nonzero;"/>
                            </g>
                        </g>
                        <g id="QUEEN3" serif:id="QUEEN" transform="matrix(0.390081,0,0,1.87749,75.4173,-3368.57)">
                            <g transform="matrix(1117.79,0,0,235.181,312.692,3028.89)">
                                <path d="M0.688,-0L0.471,-0L0.471,0.1L0.261,0.1L0.261,-0L0.045,-0L0.045,-0.65L0.688,-0.65L0.688,-0ZM0.478,-0.21L0.478,-0.44L0.255,-0.44L0.255,-0.21L0.478,-0.21Z" style="fill-rule:nonzero;"/>
                            </g>
                            <g transform="matrix(1117.79,0,0,235.181,1129.8,3028.89)">
                                <path d="M0.701,-0L0.121,-0L0.121,-0.44L0.046,-0.44L0.046,-0.65L0.331,-0.65L0.331,-0.21L0.491,-0.21L0.491,-0.65L0.701,-0.65L0.701,-0Z" style="fill-rule:nonzero;"/>
                            </g>
                            <g transform="matrix(1117.79,0,0,235.181,1967.02,3028.89)">
                                <path d="M0.626,-0L0.046,-0L0.046,-0.21L0.121,-0.21L0.121,-0.264L0.182,-0.325L0.121,-0.385L0.121,-0.44L0.046,-0.44L0.046,-0.65L0.626,-0.65L0.626,-0.44L0.364,-0.44L0.479,-0.325L0.364,-0.21L0.626,-0.21L0.626,-0Z" style="fill-rule:nonzero;"/>
                            </g>
                            <g transform="matrix(1117.79,0,0,235.181,2719.3,3028.89)">
                                <path d="M0.626,-0L0.046,-0L0.046,-0.21L0.121,-0.21L0.121,-0.264L0.182,-0.325L0.121,-0.385L0.121,-0.44L0.046,-0.44L0.046,-0.65L0.626,-0.65L0.626,-0.44L0.364,-0.44L0.479,-0.325L0.364,-0.21L0.626,-0.21L0.626,-0Z" style="fill-rule:nonzero;"/>
                            </g>
                            <g transform="matrix(1117.79,0,0,235.181,3471.57,3028.89)">
                                <path d="M0.701,-0L0.491,-0L0.491,-0.44L0.331,-0.44L0.331,-0L0.046,-0L0.046,-0.21L0.121,-0.21L0.121,-0.65L0.701,-0.65L0.701,-0Z" style="fill-rule:nonzero;"/>
                            </g>
                        </g>
                        <g id="QUEEN4" serif:id="QUEEN" transform="matrix(0.390081,0,0,1.87749,75.4173,-3368.57)">
                            <g transform="matrix(1117.79,0,0,235.181,312.692,3028.89)">
                                <path d="M0.688,-0L0.471,-0L0.471,0.1L0.261,0.1L0.261,-0L0.045,-0L0.045,-0.65L0.688,-0.65L0.688,-0ZM0.478,-0.21L0.478,-0.44L0.255,-0.44L0.255,-0.21L0.478,-0.21Z" style="fill:white;fill-rule:nonzero;"/>
                            </g>
                            <g transform="matrix(1117.79,0,0,235.181,1129.8,3028.89)">
                                <path d="M0.701,-0L0.121,-0L0.121,-0.44L0.046,-0.44L0.046,-0.65L0.331,-0.65L0.331,-0.21L0.491,-0.21L0.491,-0.65L0.701,-0.65L0.701,-0Z" style="fill:white;fill-rule:nonzero;"/>
                            </g>
                            <g transform="matrix(1117.79,0,0,235.181,1967.02,3028.89)">
                                <path d="M0.626,-0L0.046,-0L0.046,-0.21L0.121,-0.21L0.121,-0.264L0.182,-0.325L0.121,-0.385L0.121,-0.44L0.046,-0.44L0.046,-0.65L0.626,-0.65L0.626,-0.44L0.364,-0.44L0.479,-0.325L0.364,-0.21L0.626,-0.21L0.626,-0Z" style="fill:white;fill-rule:nonzero;"/>
                            </g>
                            <g transform="matrix(1117.79,0,0,235.181,2719.3,3028.89)">
                                <path d="M0.626,-0L0.046,-0L0.046,-0.21L0.121,-0.21L0.121,-0.264L0.182,-0.325L0.121,-0.385L0.121,-0.44L0.046,-0.44L0.046,-0.65L0.626,-0.65L0.626,-0.44L0.364,-0.44L0.479,-0.325L0.364,-0.21L0.626,-0.21L0.626,-0Z" style="fill:white;fill-rule:nonzero;"/>
                            </g>
                            <g transform="matrix(1117.79,0,0,235.181,3471.57,3028.89)">
                                <path d="M0.701,-0L0.491,-0L0.491,-0.44L0.331,-0.44L0.331,-0L0.046,-0L0.046,-0.21L0.121,-0.21L0.121,-0.65L0.701,-0.65L0.701,-0Z" style="fill:white;fill-rule:nonzero;"/>
                            </g>
                        </g>
                    </g>
                    <g id="TO-THE" serif:id="TO THE" transform="matrix(0.966876,0,0,0.84035,76.6824,270.39)">
                        <g id="TO-THE1" serif:id="TO THE" transform="matrix(0.320006,0,0,1.6789,209.802,-3092.51)">
                            <g transform="matrix(1117.79,0,0,235.181,281.953,3028.89)">
                                <path d="M0.626,-0.44L0.439,-0.44L0.439,-0L0.229,-0L0.229,-0.44L0.046,-0.44L0.046,-0.65L0.626,-0.65L0.626,-0.44Z" style="fill-rule:nonzero;"/>
                            </g>
                            <g transform="matrix(1117.79,0,0,235.181,1034.23,3028.89)">
                                <path d="M0.626,-0L0.046,-0L0.046,-0.65L0.626,-0.65L0.626,-0ZM0.416,-0.21L0.416,-0.44L0.256,-0.44L0.256,-0.21L0.416,-0.21Z" style="fill-rule:nonzero;"/>
                            </g>
                            <g transform="matrix(1117.79,0,0,235.181,2080.48,3028.89)">
                                <path d="M0.626,-0.44L0.439,-0.44L0.439,-0L0.229,-0L0.229,-0.44L0.046,-0.44L0.046,-0.65L0.626,-0.65L0.626,-0.44Z" style="fill-rule:nonzero;"/>
                            </g>
                            <g transform="matrix(1117.79,0,0,235.181,2832.75,3028.89)">
                                <path d="M0.626,-0L0.416,-0L0.416,-0.22L0.256,-0.22L0.256,-0L0.046,-0L0.046,-0.65L0.256,-0.65L0.256,-0.43L0.416,-0.43L0.416,-0.65L0.626,-0.65L0.626,-0Z" style="fill-rule:nonzero;"/>
                            </g>
                            <g transform="matrix(1117.79,0,0,235.181,3585.03,3028.89)">
                                <path d="M0.626,-0L0.046,-0L0.046,-0.21L0.121,-0.21L0.121,-0.264L0.182,-0.325L0.121,-0.385L0.121,-0.44L0.046,-0.44L0.046,-0.65L0.626,-0.65L0.626,-0.44L0.364,-0.44L0.479,-0.325L0.364,-0.21L0.626,-0.21L0.626,-0Z" style="fill-rule:nonzero;"/>
                            </g>
                        </g>
                        <g id="TO-THE2" serif:id="TO THE" transform="matrix(0.320006,0,0,1.6789,209.802,-3173.32)">
                            <g transform="matrix(1117.79,0,0,235.181,281.953,3028.89)">
                                <path d="M0.626,-0.44L0.439,-0.44L0.439,-0L0.229,-0L0.229,-0.44L0.046,-0.44L0.046,-0.65L0.626,-0.65L0.626,-0.44Z" style="fill-rule:nonzero;"/>
                            </g>
                            <g transform="matrix(1117.79,0,0,235.181,1034.23,3028.89)">
                                <path d="M0.626,-0L0.046,-0L0.046,-0.65L0.626,-0.65L0.626,-0ZM0.416,-0.21L0.416,-0.44L0.256,-0.44L0.256,-0.21L0.416,-0.21Z" style="fill-rule:nonzero;"/>
                            </g>
                            <g transform="matrix(1117.79,0,0,235.181,2080.48,3028.89)">
                                <path d="M0.626,-0.44L0.439,-0.44L0.439,-0L0.229,-0L0.229,-0.44L0.046,-0.44L0.046,-0.65L0.626,-0.65L0.626,-0.44Z" style="fill-rule:nonzero;"/>
                            </g>
                            <g transform="matrix(1117.79,0,0,235.181,2832.75,3028.89)">
                                <path d="M0.626,-0L0.416,-0L0.416,-0.22L0.256,-0.22L0.256,-0L0.046,-0L0.046,-0.65L0.256,-0.65L0.256,-0.43L0.416,-0.43L0.416,-0.65L0.626,-0.65L0.626,-0Z" style="fill-rule:nonzero;"/>
                            </g>
                            <g transform="matrix(1117.79,0,0,235.181,3585.03,3028.89)">
                                <path d="M0.626,-0L0.046,-0L0.046,-0.21L0.121,-0.21L0.121,-0.264L0.182,-0.325L0.121,-0.385L0.121,-0.44L0.046,-0.44L0.046,-0.65L0.626,-0.65L0.626,-0.44L0.364,-0.44L0.479,-0.325L0.364,-0.21L0.626,-0.21L0.626,-0Z" style="fill-rule:nonzero;"/>
                            </g>
                        </g>
                        <g id="TO-THE3" serif:id="TO THE" transform="matrix(0.320006,0,0,1.6789,209.802,-3227.04)">
                            <g transform="matrix(1117.79,0,0,235.181,281.953,3028.89)">
                                <path d="M0.626,-0.44L0.439,-0.44L0.439,-0L0.229,-0L0.229,-0.44L0.046,-0.44L0.046,-0.65L0.626,-0.65L0.626,-0.44Z" style="fill:white;fill-rule:nonzero;"/>
                            </g>
                            <g transform="matrix(1117.79,0,0,235.181,1034.23,3028.89)">
                                <path d="M0.626,-0L0.046,-0L0.046,-0.65L0.626,-0.65L0.626,-0ZM0.416,-0.21L0.416,-0.44L0.256,-0.44L0.256,-0.21L0.416,-0.21Z" style="fill:white;fill-rule:nonzero;"/>
                            </g>
                            <g transform="matrix(1117.79,0,0,235.181,2080.48,3028.89)">
                                <path d="M0.626,-0.44L0.439,-0.44L0.439,-0L0.229,-0L0.229,-0.44L0.046,-0.44L0.046,-0.65L0.626,-0.65L0.626,-0.44Z" style="fill:white;fill-rule:nonzero;"/>
                            </g>
                            <g transform="matrix(1117.79,0,0,235.181,2832.75,3028.89)">
                                <path d="M0.626,-0L0.416,-0L0.416,-0.22L0.256,-0.22L0.256,-0L0.046,-0L0.046,-0.65L0.256,-0.65L0.256,-0.43L0.416,-0.43L0.416,-0.65L0.626,-0.65L0.626,-0Z" style="fill:white;fill-rule:nonzero;"/>
                            </g>
                            <g transform="matrix(1117.79,0,0,235.181,3585.03,3028.89)">
                                <path d="M0.626,-0L0.046,-0L0.046,-0.21L0.121,-0.21L0.121,-0.264L0.182,-0.325L0.121,-0.385L0.121,-0.44L0.046,-0.44L0.046,-0.65L0.626,-0.65L0.626,-0.44L0.364,-0.44L0.479,-0.325L0.364,-0.21L0.626,-0.21L0.626,-0Z" style="fill:white;fill-rule:nonzero;"/>
                            </g>
                        </g>
                    </g>
                    <g id="HAIL" transform="matrix(1.08737,0,0,0.84035,-84.3011,270.39)">
                        <g transform="matrix(1.27118,0,0,0.884331,-1036.69,-263.571)">
                            <g transform="matrix(288,0,0,288,1261.51,2030.16)">
                                <path d="M0.626,-0L0.416,-0L0.416,-0.22L0.256,-0.22L0.256,-0L0.046,-0L0.046,-0.65L0.256,-0.65L0.256,-0.43L0.416,-0.43L0.416,-0.65L0.626,-0.65L0.626,-0Z" style="fill-rule:nonzero;"/>
                            </g>
                            <g transform="matrix(288,0,0,288,1455.33,2030.16)">
                                <path d="M0.626,-0L0.416,-0L0.416,-0.075L0.256,-0.075L0.256,-0L0.046,-0L0.046,-0.65L0.626,-0.65L0.626,-0ZM0.416,-0.29L0.416,-0.44L0.256,-0.44L0.256,-0.29L0.416,-0.29Z" style="fill-rule:nonzero;"/>
                            </g>
                            <g transform="matrix(288,0,0,288,1649.15,2030.16)">
                                <rect x="0.046" y="-0.65" width="0.21" height="0.65" style="fill-rule:nonzero;"/>
                            </g>
                            <g transform="matrix(288,0,0,288,1736.13,2030.16)">
                                <path d="M0.626,-0L0.046,-0L0.046,-0.65L0.256,-0.65L0.256,-0.21L0.626,-0.21L0.626,-0Z" style="fill-rule:nonzero;"/>
                            </g>
                        </g>
                        <g transform="matrix(1.27118,0,0,0.884331,-1036.69,-306.156)">
                            <g transform="matrix(288,0,0,288,1261.51,2030.16)">
                                <path d="M0.626,-0L0.416,-0L0.416,-0.22L0.256,-0.22L0.256,-0L0.046,-0L0.046,-0.65L0.256,-0.65L0.256,-0.43L0.416,-0.43L0.416,-0.65L0.626,-0.65L0.626,-0Z" style="fill-rule:nonzero;"/>
                            </g>
                            <g transform="matrix(288,0,0,288,1455.33,2030.16)">
                                <path d="M0.626,-0L0.416,-0L0.416,-0.075L0.256,-0.075L0.256,-0L0.046,-0L0.046,-0.65L0.626,-0.65L0.626,-0ZM0.416,-0.29L0.416,-0.44L0.256,-0.44L0.256,-0.29L0.416,-0.29Z" style="fill-rule:nonzero;"/>
                            </g>
                            <g transform="matrix(288,0,0,288,1649.15,2030.16)">
                                <rect x="0.046" y="-0.65" width="0.21" height="0.65" style="fill-rule:nonzero;"/>
                            </g>
                            <g transform="matrix(288,0,0,288,1736.13,2030.16)">
                                <path d="M0.626,-0L0.046,-0L0.046,-0.65L0.256,-0.65L0.256,-0.21L0.626,-0.21L0.626,-0Z" style="fill-rule:nonzero;"/>
                            </g>
                        </g>
                        <g transform="matrix(1.27118,0,0,0.884331,-1036.69,-325.997)">
                            <g transform="matrix(288,0,0,288,1261.51,2030.16)">
                                <path d="M0.626,-0L0.416,-0L0.416,-0.22L0.256,-0.22L0.256,-0L0.046,-0L0.046,-0.65L0.256,-0.65L0.256,-0.43L0.416,-0.43L0.416,-0.65L0.626,-0.65L0.626,-0Z" style="fill-rule:nonzero;"/>
                            </g>
                            <g transform="matrix(288,0,0,288,1455.33,2030.16)">
                                <path d="M0.626,-0L0.416,-0L0.416,-0.075L0.256,-0.075L0.256,-0L0.046,-0L0.046,-0.65L0.626,-0.65L0.626,-0ZM0.416,-0.29L0.416,-0.44L0.256,-0.44L0.256,-0.29L0.416,-0.29Z" style="fill-rule:nonzero;"/>
                            </g>
                            <g transform="matrix(288,0,0,288,1649.15,2030.16)">
                                <rect x="0.046" y="-0.65" width="0.21" height="0.65" style="fill-rule:nonzero;"/>
                            </g>
                            <g transform="matrix(288,0,0,288,1736.13,2030.16)">
                                <path d="M0.626,-0L0.046,-0L0.046,-0.65L0.256,-0.65L0.256,-0.21L0.626,-0.21L0.626,-0Z" style="fill-rule:nonzero;"/>
                            </g>
                        </g>
                        <g transform="matrix(1.27118,0,0,0.884331,-1036.61,-379.468)">
                            <g transform="matrix(288,0,0,288,1261.51,2030.16)">
                                <path d="M0.626,-0L0.416,-0L0.416,-0.22L0.256,-0.22L0.256,-0L0.046,-0L0.046,-0.65L0.256,-0.65L0.256,-0.43L0.416,-0.43L0.416,-0.65L0.626,-0.65L0.626,-0Z" style="fill:white;fill-rule:nonzero;"/>
                            </g>
                            <g transform="matrix(288,0,0,288,1455.33,2030.16)">
                                <path d="M0.626,-0L0.416,-0L0.416,-0.075L0.256,-0.075L0.256,-0L0.046,-0L0.046,-0.65L0.626,-0.65L0.626,-0ZM0.416,-0.29L0.416,-0.44L0.256,-0.44L0.256,-0.29L0.416,-0.29Z" style="fill:white;fill-rule:nonzero;"/>
                            </g>
                            <g transform="matrix(288,0,0,288,1649.15,2030.16)">
                                <rect x="0.046" y="-0.65" width="0.21" height="0.65" style="fill:white;fill-rule:nonzero;"/>
                            </g>
                            <g transform="matrix(288,0,0,288,1736.13,2030.16)">
                                <path d="M0.626,-0L0.046,-0L0.046,-0.65L0.256,-0.65L0.256,-0.21L0.626,-0.21L0.626,-0Z" style="fill:white;fill-rule:nonzero;"/>
                            </g>
                        </g>
                    </g>
                    <g id="Reina" transform="matrix(0.301907,0,0,0.298924,551.162,527.204)">
                        <path d="M1658.84,1124.84L1659.05,1124.84L1848.43,1934.42L1094.78,1934.42L1284.16,1124.84L1284.24,1124.84C1300.1,1067.04 1301.4,1063.83 1301.47,1063.69C1301.48,1063.69 1301.48,1063.68 1301.47,1063.69C1301.43,1063.71 1301.27,1062.59 1313.68,1011.24L1290.02,1103.39L1215.67,1101.89L1259.67,1060.3L1316.04,1001.53C1316.59,999.248 1317.16,996.885 1317.76,994.436L1317.95,994.436L1319.51,989.919L1245.13,819.617L1176.9,672.748L1402.36,749.691L1446.29,588.19L1417.4,515.038L1526.65,515.038L1498.83,588.19L1545.46,753.681L1770.64,676.83L1702.42,823.699L1628.21,993.615L1628.69,995.003L1627.66,995.003L1658.84,1124.84ZM1955.35,2112.38L1955.35,2388.71L978.08,2388.71L978.08,2112.38L1955.35,2112.38ZM1910.32,1937.27L1910.32,2110.93L1026.79,2110.93L1026.79,1937.27L1910.32,1937.27ZM1685.9,1060.3L1729.9,1101.9L1655.55,1103.4L1629.34,1001.3L1685.9,1060.3Z" style="stroke:rgb(52,52,52);stroke-width:10.78px;"/>
                    </g>
                </g>
            </g>
        </g>
    </g>
</svg>
