<svg xmlns="http://www.w3.org/2000/svg" viewBox="0 0 619.07 595.44"><defs><style>.cls-1{fill:#ba2323;}</style></defs><g id="black"><path class="cls-1" d="M309.53,455.26h83.64v-7.91c.23-3.26,7-8.37,11.86-10.93s3.72-6.28,3.49-7.68-13-7.44-13-7.44c6.75-4.42,6.52-18.61,6.52-18.61.69-12.1-14.43-20.94-14.43-20.94.24-1.16,2.1-4.88-1.39-6.51S372,363.14,372,363.14c7.91-7.91-1.86-13.49-1.86-13.49,2.32-8.14-8.26-10.35-8.26-10.35-22.68-8.73-30.36-68.52-24.54-67.82s7.91-2.09,8.37-4.19-2.56-4.94-2.56-4.94c.47-5.41,7.68-9.94,12.93-11.34s3.59-4.65,3.59-4.65c-.23-3.72-14.19-9.07-14.19-9.07s1.16-2.56,0-7.45c-.58-2.4-9.26-3.28-17.93-3.56,16.61-6.83,28.26-22.73,28.26-41.27,0-24.76-20.78-44.83-46.41-44.83S263,160.25,263,185c0,18.54,11.65,34.45,28.27,41.28-8.58.28-17.1,1.17-17.67,3.55-1.16,4.89,0,7.45,0,7.45s-14,5.35-14.19,9.07c0,0-1.67,3.26,3.59,4.65s12.46,5.93,12.93,11.34c0,0-3,2.85-2.56,4.94s2.56,4.89,8.38,4.19-1.87,59.09-24.55,67.82c0,0-10.58,2.21-8.26,10.35,0,0-9.77,5.58-1.86,13.49,0,0-10.7,10.47-14.19,12.1s-1.63,5.35-1.39,6.51c0,0-15.12,8.84-14.42,20.94,0,0-.24,14.19,6.51,18.61,0,0-12.8,6.05-13,7.44s-1.39,5.12,3.49,7.68,11.63,7.67,11.86,10.93v7.91Z"/></g></svg>