<svg xmlns="http://www.w3.org/2000/svg" viewBox="0 0 1352.08 2028.13"><defs><style>.cls-1{fill:#ba2323;stroke:#000;stroke-miterlimit:10;stroke-width:40px;}.cls-2{fill:#080808;}</style></defs><g id="black"><rect class="cls-1" y="17.42" width="1352.08" height="2028.13"/><path class="cls-2" d="M1314.78,1038.69a4.07,4.07,0,0,1-4-4.17V940.94l-40-70.7a4.29,4.29,0,0,1-.56-2.13V803.62a4.06,4.06,0,0,1,3.94-4.16h15.41V609.75A272.92,272.92,0,0,1,1271,586.29v21.79a4.2,4.2,0,0,1-2.14,3.7,3.78,3.78,0,0,1-4.08-.29C1222.35,580,1204.3,512.85,1212,468.64c4.25-24.6,16.14-40.72,33.47-45.4,12.68-3.43,23.84-1.69,33.16,5.17,14.83,10.9,21.14,32,23.63,44.19,6.64-10.53,15.13-33-4.8-63.47-14-21.44-34.13-29.37-55.39-37.76-27.48-10.84-55.9-22.06-69.64-63.9-6.49-19.78-1.12-45.71,13.67-66.08,16.47-22.65,41.79-34.52,69.39-32.38,36.85,2.75,56.16,31.34,61.49,55,5.72,25.32-2.65,49.29-21.33,61.06-15.8,10-32.13,9.08-44.78-2.41-12.49-11.32-17.59-29.82-12.11-44,6.34-16.46,18.92-21,27.73-19.92,7.69,1,13.29,5.94,14.26,12.7,1.81,12.46-9.15,19.15-15.19,20.94a3.92,3.92,0,0,1-4.85-2.87,4.2,4.2,0,0,1,2.7-5.13c.44-.14,10.76-3.38,9.55-11.68-.42-2.91-3.39-5.2-7.39-5.7-6.1-.79-14.82,2.67-19.51,14.79-4.17,10.77.11,25.61,10,34.53s22.91,9.58,35.6,1.57c15.91-10,22.68-29.94,17.71-52-4.72-20.9-21.79-46.19-54.39-48.62-34.15-2.51-53.85,17.17-62.57,29.15-13,17.92-18,41.35-12.47,58.28,12.52,38.15,38,48.2,65,58.84,21.47,8.47,43.67,17.23,59.11,40.82,31.54,48.16-1.12,80.6-1.46,80.93a3.75,3.75,0,0,1-4.06.82,4.16,4.16,0,0,1-2.52-3.47c0-.33-3.6-34.11-21.79-47.46-7.36-5.41-16.34-6.71-26.69-3.93-14.17,3.84-24,17.63-27.67,38.84-6.85,39.56,9,98.92,43.44,129.5V574.53c-10.06-15.91-19.71-35.25-22.83-54.3-2.64-16.22-.6-29.06,6.06-38.21a30.64,30.64,0,0,1,20.38-12.31,3.81,3.81,0,0,1,3,1.08,4.29,4.29,0,0,1,1.28,3.07v98a273.15,273.15,0,0,0,25.38,33.31,4.27,4.27,0,0,1,1.12,2.91V799.45h17.24a3.94,3.94,0,0,1,3.62,2.51,4.32,4.32,0,0,1-.74,4.49l-21.18,23.93a3.84,3.84,0,0,1-4.33,1,4.18,4.18,0,0,1-2.49-3.87V807.78h-11.47V867l40,70.69a4.33,4.33,0,0,1,.56,2.14v94.73A4.06,4.06,0,0,1,1314.78,1038.69Zm-17.24-230.9V817l8.16-9.21Zm-34.38-328.62a23,23,0,0,0-10.6,8.05c-5.21,7.22-6.7,17.86-4.47,31.62,2.21,13.47,8.1,27.33,15.07,39.9Z"/><path class="cls-2" d="M1294.48,370.86a3.83,3.83,0,0,1-2.93-1.39c-5.68-6.7-12.45-9-21.82-12.27-13.26-4.58-29.79-10.28-51.24-31.26-10-9.75-14.91-21.05-14.66-33.57.52-27.54,26.06-50.89,27.15-51.86a3.77,3.77,0,0,1,5.55.46,4.32,4.32,0,0,1-.43,5.86c-.24.22-24,21.95-24.4,45.74-.18,10,3.91,19.21,12.14,27.27,20.19,19.74,35.8,25.13,48.34,29.46,6.76,2.33,12.87,4.45,18.35,8.31V321.49a4,4,0,1,1,7.89,0V366.7a4.16,4.16,0,0,1-2.54,3.88A3.8,3.8,0,0,1,1294.48,370.86Z"/><path class="cls-2" d="M1267.09,277.66a4.07,4.07,0,0,1-3.94-4.17v-158H1113.39a4.17,4.17,0,0,1,0-8.33h153.69a4.05,4.05,0,0,1,4,4.16V273.48A4,4,0,0,1,1267.09,277.66Z"/><path class="cls-2" d="M1098.18,214.12a49.29,49.29,0,0,1-17-2.87c-39.67-14.5-50.29-44.48-60.57-73.47-8-22.45-15.47-43.65-35.78-58.45-29-21.17-50.3-12.12-60.22-5.09,11.54,2.63,31.6,9.27,42,24.94,6.5,9.85,8.14,21.63,4.9,35-4.44,18.29-19.73,30.83-43,35.32-41.92,8.09-105.58-11-135.38-55.8a4.34,4.34,0,0,1-.27-4.31,3.91,3.91,0,0,1,3.5-2.24H817a267.11,267.11,0,0,1-22.22-19.64h-153a4.17,4.17,0,0,1,0-8.33H796.31a3.86,3.86,0,0,1,2.76,1.19,266,266,0,0,0,31.56,26.77H923.5a3.84,3.84,0,0,1,2.91,1.35,4.31,4.31,0,0,1,1,3.18,33.53,33.53,0,0,1-11.66,21.5c-8.66,7-20.83,9.17-36.22,6.39-18-3.28-36.38-13.48-51.46-24.09H804.32c29,36.3,85.27,53.07,122.73,45.84,20.09-3.87,33.17-14.24,36.81-29.2,2.65-10.93,1.39-20.41-3.73-28.18-12.71-19.23-44.67-22.94-45-23a4,4,0,0,1-3.27-2.66,4.35,4.35,0,0,1,.77-4.29c.3-.35,31.06-34.82,76.71-1.54,22.35,16.29,30.65,39.72,38.68,62.39,10.08,28.44,19.6,55.3,55.76,68.52,16,5.88,38.24.58,55.23-13.16,11.35-9.19,30-30,27.63-66-2.31-34.38-26.27-52.4-46.08-57.38-20.87-5.25-39.76,1.91-49.26,18.68-7.58,13.4-7,27.09,1.49,37.57s22.54,14.9,32.72,10.5c11.49-4.95,14.73-14.17,14-20.58-.48-4.22-2.65-7.35-5.41-7.81-7.94-1.23-11,10-11.06,10.06a3.91,3.91,0,0,1-4.86,2.89,4.22,4.22,0,0,1-2.74-5.14c1.72-6.37,8.07-18,19.85-16,6.41,1,11.14,6.94,12,15,1,9.31-3.27,22.55-18.87,29.26-13.43,5.77-31,.39-41.68-12.79-10.89-13.37-11.71-30.59-2.28-47.25,11.15-19.7,33.85-28.55,57.86-22.51,22.42,5.64,49.5,26,52.12,64.89,2,29.17-9.24,55.86-30.7,73.21C1130,208,1113.37,214.12,1098.18,214.12ZM843.06,115.49c11.92,7.34,25.07,13.56,37.82,15.89,13,2.38,23.13.79,30-4.71a24.36,24.36,0,0,0,7.62-11.18Z"/><path class="cls-2" d="M1094.7,178.1c-11.55,0-22-5.21-31-15.49-19.87-22.64-25.27-40.07-29.62-54.06-3.07-9.89-5.27-17-11.62-23a4.3,4.3,0,0,1-1.05-4.59,4,4,0,0,1,3.67-2.67h42.85a4.17,4.17,0,0,1,0,8.33H1033.7c3.67,5.78,5.67,12.23,7.88,19.36,4.11,13.23,9.21,29.7,27.91,51,7.66,8.7,16.14,12.94,25.88,12.82,22.6-.48,43.12-25.49,43.32-25.74a3.78,3.78,0,0,1,5.55-.46,4.31,4.31,0,0,1,.44,5.86c-.92,1.14-23,28.09-49.14,28.65Z"/><path class="cls-2" d="M1294.48,235.18a4.07,4.07,0,0,1-4-4.17V86.59H1153.66a4.17,4.17,0,0,1,0-8.33h140.82a4.06,4.06,0,0,1,4,4.16V231A4.06,4.06,0,0,1,1294.48,235.18Z"/><path class="cls-2" d="M37.31,1038.69a4.06,4.06,0,0,1-3.94-4.17V939.79a4.29,4.29,0,0,1,.56-2.13l40-70.69V807.79H62.44v19.75A4.18,4.18,0,0,1,60,831.42a3.83,3.83,0,0,1-4.33-1L34.44,806.46a4.29,4.29,0,0,1-.73-4.5,3.92,3.92,0,0,1,3.61-2.5H54.56V608.08a4.36,4.36,0,0,1,1.12-2.92,269.88,269.88,0,0,0,25.38-33.31v-98a4.23,4.23,0,0,1,1.28-3.06,3.85,3.85,0,0,1,3-1.08A30.69,30.69,0,0,1,105.72,482c6.67,9.14,8.7,22,6,38.21-3.1,19-12.76,38.39-22.82,54.3v25.09c34.39-30.58,50.29-89.93,43.44-129.5-3.67-21.21-13.49-35-27.67-38.84-10.36-2.79-19.33-1.47-26.69,3.92-18.19,13.35-21.76,47.14-21.79,47.47a4.11,4.11,0,0,1-2.52,3.46,3.76,3.76,0,0,1-4.06-.81c-.33-.33-33-32.77-1.47-80.94,15.44-23.58,37.65-32.35,59.12-40.82,27-10.63,52.42-20.68,64.94-58.83,5.57-16.93.55-40.36-12.47-58.28-8.71-12-28.49-31.7-62.57-29.16C64.62,219.74,47.54,245,42.83,265.92c-5,22.05,1.8,42,17.7,52,12.72,8,25.68,7.44,35.61-1.56s14.11-23.76,10-34.53C101.4,269.68,92.65,266.22,86.58,267c-4,.49-7,2.78-7.4,5.7-1.22,8.38,9.44,11.64,9.53,11.67a4.19,4.19,0,0,1,2.74,5.12,3.92,3.92,0,0,1-4.86,2.89c-6-1.79-17-8.49-15.2-20.94,1-6.76,6.59-11.74,14.27-12.7,8.85-1,21.37,3.47,27.73,19.91,5.47,14.16.38,32.66-12.11,44-12.68,11.47-29,12.36-44.79,2.41-18.67-11.78-27-35.75-21.33-61.06,5.34-23.65,24.64-52.23,61.49-55,27.59-2.14,52.93,9.73,69.38,32.38,14.81,20.36,20.17,46.29,13.68,66.07-13.74,41.85-42.15,53.07-69.63,63.91-21.27,8.39-41.36,16.32-55.4,37.75-19.93,30.45-11.44,52.95-4.8,63.48,2.49-12.19,8.8-33.3,23.63-44.19,9.32-6.87,20.48-8.59,33.16-5.18,17.34,4.69,29.22,20.81,33.48,45.41,7.65,44.2-10.4,111.39-52.89,142.84a3.74,3.74,0,0,1-4.07.29,4.2,4.2,0,0,1-2.13-3.69V586.3a272,272,0,0,1-18.62,23.45V799.47H77.85a4.05,4.05,0,0,1,3.94,4.16v64.49a4.36,4.36,0,0,1-.55,2.13l-40,70.7v93.58A4.06,4.06,0,0,1,37.31,1038.69Zm9.09-230.9L54.56,817v-9.21ZM88.94,479.17v79.57c7-12.57,12.86-26.44,15.06-39.9,2.25-13.76.74-24.4-4.46-31.62A23,23,0,0,0,88.94,479.17Z"/><path class="cls-2" d="M57.62,370.86a3.89,3.89,0,0,1-1.41-.28,4.15,4.15,0,0,1-2.53-3.88V321.49a4,4,0,1,1,7.89,0v36.12c5.48-3.87,11.6-6,18.35-8.31,12.53-4.33,28.14-9.72,48.33-29.46,8.25-8.07,12.34-17.26,12.15-27.3-.45-23.85-24.15-45.49-24.39-45.71a4.31,4.31,0,0,1-.44-5.86,3.79,3.79,0,0,1,5.56-.46c1.08,1,26.62,24.32,27.15,51.86.24,12.52-4.7,23.82-14.67,33.57-21.45,21-38,26.68-51.25,31.26-9.35,3.24-16.12,5.57-21.8,12.27A3.87,3.87,0,0,1,57.62,370.86Z"/><path class="cls-2" d="M85,277.66a4.06,4.06,0,0,1-4-4.17V111.32a4,4,0,0,1,4-4.16H238.69a4.17,4.17,0,0,1,0,8.33H88.93v158A4,4,0,0,1,85,277.66Z"/><path class="cls-2" d="M253.9,214.12c-15.18,0-31.76-6.08-45.62-17.29-21.46-17.37-32.65-44.05-30.69-73.22,2.61-38.88,29.71-59.26,52.11-64.88,24-6,46.71,2.8,57.86,22.5,9.44,16.67,8.61,33.89-2.27,47.25-10.73,13.18-28.26,18.58-41.69,12.79-15.59-6.7-19.9-20-18.87-29.25.91-8.11,5.63-14,12-15,11.85-1.93,18.14,9.65,19.84,16a4.19,4.19,0,0,1-2.71,5.12,4,4,0,0,1-4.88-2.86c-.12-.46-3.15-11.33-11.05-10.07-2.77.45-4.93,3.58-5.41,7.81-.72,6.39,2.52,15.63,14,20.58,10.21,4.37,24.27-.14,32.72-10.51s9.08-24.17,1.5-37.56c-9.51-16.77-28.37-23.93-49.26-18.68-19.82,5-43.78,23-46.09,57.38-2.41,36.05,16.28,56.83,27.64,66,17,13.75,39.17,19,55.23,13.17,36.15-13.21,45.67-40.09,55.75-68.53,8-22.66,16.35-46.09,38.69-62.38,45.65-33.27,76.4,1.2,76.7,1.55a4.28,4.28,0,0,1,.77,4.28A3.93,3.93,0,0,1,437,81c-.32,0-32.34,3.81-45,23-5.12,7.76-6.37,17.23-3.72,28.16,3.63,15,16.7,25.32,36.81,29.2,37.49,7.21,93.75-9.55,122.72-45.85H524c-15.08,10.61-33.41,20.81-51.47,24.09-15.38,2.79-27.56.65-36.21-6.39-10.46-8.51-11.63-21-11.68-21.49a4.33,4.33,0,0,1,1-3.18,3.87,3.87,0,0,1,2.91-1.36h92.88A261.78,261.78,0,0,0,553,80.39a3.82,3.82,0,0,1,2.77-1.19H710.36a4.17,4.17,0,0,1,0,8.33h-153a268,268,0,0,1-22.23,19.64h20.65a3.92,3.92,0,0,1,3.5,2.25,4.35,4.35,0,0,1-.28,4.3c-29.79,44.83-93.42,63.89-135.37,55.8-23.31-4.48-38.59-17-43-35.32-3.25-13.37-1.6-25.15,4.9-35,10.33-15.65,30.34-22.31,41.88-24.94-10-7-31.3-16-60.16,5.08-20.3,14.8-27.82,36-35.77,58.45-10.28,29-20.91,59-60.57,73.47A49.78,49.78,0,0,1,253.9,214.12Zm179.71-98.63a24.36,24.36,0,0,0,7.63,11.18c6.84,5.5,16.92,7.09,30,4.71,12.77-2.33,25.92-8.55,37.83-15.89Z"/><path class="cls-2" d="M257.4,178.1h-.82c-26.1-.56-48.23-27.51-49.15-28.65a4.31,4.31,0,0,1,.44-5.86,3.8,3.8,0,0,1,5.55.45c.21.25,20.8,25.28,43.35,25.75,9.42.17,18.2-4.11,25.85-12.82,18.7-21.3,23.81-37.77,27.92-51,2.2-7.13,4.21-13.58,7.87-19.36H284.19a4.17,4.17,0,0,1,0-8.33H327a4,4,0,0,1,3.68,2.67,4.33,4.33,0,0,1-1,4.59c-6.35,6-8.57,13.13-11.63,23-4.34,14-9.75,31.42-29.62,54.06C279.37,172.89,268.94,178.1,257.4,178.1Z"/><path class="cls-2" d="M57.62,235.18A4.06,4.06,0,0,1,53.67,231V82.42a4.06,4.06,0,0,1,3.95-4.16H198.44a4.17,4.17,0,0,1,0,8.33H61.56V231A4.06,4.06,0,0,1,57.62,235.18Z"/><path class="cls-2" d="M102.82,1860.27q-3.07,0-6.18-.23c-36.85-2.75-56.17-31.34-61.5-55-5.71-25.31,2.67-49.28,21.33-61,15.81-10,32.13-9.07,44.79,2.41,12.49,11.33,17.58,29.82,12.11,44-6.35,16.46-18.9,21.06-27.73,19.91-7.68-1-13.28-5.94-14.26-12.69-1.82-12.46,9.15-19.14,15.19-20.94a3.92,3.92,0,0,1,4.86,2.87,4.2,4.2,0,0,1-2.71,5.13c-.44.14-10.76,3.39-9.55,11.67.43,2.91,3.39,5.2,7.4,5.7,6.05.74,14.81-2.66,19.5-14.79,4.16-10.75-.12-25.59-9.94-34.51s-22.91-9.59-35.62-1.58c-15.89,10-22.68,29.92-17.7,52,4.72,20.9,21.8,46.19,54.38,48.62,34.2,2.59,53.87-17.17,62.58-29.16,13-17.93,18-41.34,12.47-58.27-12.52-38.15-38-48.2-64.94-58.84-21.48-8.48-43.68-17.24-59.12-40.82-31.54-48.16,1.13-80.6,1.46-80.93a3.82,3.82,0,0,1,4.06-.82,4.16,4.16,0,0,1,2.52,3.47c0,.34,3.61,34.11,21.79,47.46,7.37,5.41,16.35,6.71,26.69,3.92,14.17-3.83,24-17.61,27.67-38.83,6.85-39.55-9.05-98.92-43.44-129.51v25.09c10.06,15.93,19.72,35.26,22.82,54.31,2.65,16.21.62,29.06-6,38.2a30.66,30.66,0,0,1-20.37,12.32,3.94,3.94,0,0,1-3-1.08,4.23,4.23,0,0,1-1.28-3.06v-98a271.7,271.7,0,0,0-25.38-33.29,4.31,4.31,0,0,1-1.12-2.91V1269.59H37.3a3.92,3.92,0,0,1-3.61-2.5,4.29,4.29,0,0,1,.73-4.5l21.18-23.92a3.83,3.83,0,0,1,4.33-1,4.15,4.15,0,0,1,2.49,3.87v19.76H73.89v-59.18l-40-70.72a4.29,4.29,0,0,1-.56-2.13v-94.72a4,4,0,1,1,7.89,0v93.58l40,70.72a4.26,4.26,0,0,1,.56,2.13v64.49a4.05,4.05,0,0,1-3.94,4.16H62.43v189.7a277.23,277.23,0,0,1,18.62,23.47V1461a4.16,4.16,0,0,1,2.12-3.69,3.74,3.74,0,0,1,4.08.28c42.49,31.45,60.53,98.64,52.88,142.86-4.25,24.6-16.14,40.71-33.47,45.39-12.69,3.42-23.83,1.68-33.17-5.17-14.82-10.9-21.13-32-23.62-44.18-6.64,10.52-15.13,33,4.8,63.47,14,21.43,34.13,29.35,55.39,37.75,27.48,10.85,55.9,22.07,69.64,63.91,6.49,19.77,1.12,45.7-13.67,66.07C150.81,1848.59,128,1860.27,102.82,1860.27Zm-13.88-350v79.59a23.14,23.14,0,0,0,10.6-8.06c5.2-7.22,6.71-17.85,4.46-31.61C101.8,1536.74,95.9,1522.88,88.94,1510.3Zm-42.54-249h8.16v-9.22Z"/><path class="cls-2" d="M118.56,1829.54a3.86,3.86,0,0,1-3-1.45,4.31,4.31,0,0,1,.44-5.86c.23-.23,23.95-21.94,24.4-45.73.17-10-3.91-19.21-12.16-27.26-20.18-19.76-35.79-25.15-48.33-29.48-6.75-2.33-12.87-4.45-18.35-8.31v36.12a4,4,0,1,1-7.89,0v-45.21a4.16,4.16,0,0,1,2.53-3.88,3.81,3.81,0,0,1,4.35,1.11c5.68,6.69,12.45,9,21.81,12.26,13.27,4.58,29.79,10.28,51.24,31.28,10,9.75,14.91,21,14.67,33.56-.53,27.54-26.07,50.88-27.15,51.85A3.75,3.75,0,0,1,118.56,1829.54Z"/><path class="cls-2" d="M238.69,1961.89H85a4.05,4.05,0,0,1-4-4.17V1795.55a4,4,0,1,1,7.89,0v158H238.69a4.17,4.17,0,0,1,0,8.32Z"/><path class="cls-2" d="M244.47,2012.21a60.13,60.13,0,0,1-14.77-1.88c-22.41-5.63-49.5-26-52.11-64.88-2-29.18,9.24-55.86,30.71-73.23,19.29-15.6,43.86-21.23,62.59-14.4,39.66,14.49,50.29,44.47,60.57,73.47,8,22.44,15.47,43.64,35.78,58.44,28.86,21,50.18,12.07,60.16,5.08-11.55-2.63-31.55-9.28-41.89-24.94-6.5-9.84-8.14-21.62-4.9-35,4.45-18.29,19.73-30.83,43-35.32,41.9-8,105.58,11,135.39,55.8a4.35,4.35,0,0,1,.27,4.3,3.91,3.91,0,0,1-3.5,2.25H535.13a268.94,268.94,0,0,1,22.25,19.65h153a4.17,4.17,0,0,1,0,8.33H555.79a3.91,3.91,0,0,1-2.76-1.18,262.3,262.3,0,0,0-31.56-26.78H428.61a3.84,3.84,0,0,1-2.91-1.35,4.34,4.34,0,0,1-1-3.18c.05-.53,1.21-13,11.67-21.5,8.67-7,20.84-9.17,36.22-6.39,18,3.28,36.37,13.47,51.46,24.09h23.77c-29-36.3-85.25-53-122.73-45.85-20.1,3.87-33.17,14.24-36.81,29.2-2.65,10.92-1.39,20.4,3.72,28.17,12.65,19.19,44.67,23,45,23a4,4,0,0,1,3.28,2.65,4.37,4.37,0,0,1-.77,4.29c-.31.36-31.05,34.83-76.7,1.54-22.35-16.28-30.66-39.72-38.69-62.37-10.09-28.45-19.6-55.31-55.76-68.53-16-5.88-38.23-.58-55.22,13.16-11.36,9.18-30.06,30-27.64,66,2.3,34.38,26.26,52.4,46.08,57.38,20.89,5.26,39.76-1.9,49.26-18.68,7.58-13.39,7-27.09-1.49-37.57s-22.51-14.89-32.72-10.51c-11.49,5-14.73,14.18-14,20.59.46,4.22,2.64,7.35,5.4,7.81,7.92,1.34,11-10,11.06-10.07a3.94,3.94,0,0,1,4.86-2.88,4.2,4.2,0,0,1,2.73,5.14c-1.71,6.37-8,18-19.85,16-6.4-1-11.13-7-12-15-1-9.3,3.28-22.54,18.87-29.26,13.4-5.79,30.94-.4,41.68,12.8,10.89,13.37,11.72,30.59,2.28,47.26C278.74,2003.42,262.68,2012.21,244.47,2012.21Zm189.11-58.64H509c-11.92-7.35-25.06-13.57-37.81-15.89-13.12-2.39-23.23-.77-30.07,4.79A24.19,24.19,0,0,0,433.58,1953.57Z"/><path class="cls-2" d="M327,1990.79H284.17a4.17,4.17,0,0,1,0-8.33H318.4c-3.67-5.78-5.67-12.23-7.88-19.37-4.1-13.23-9.21-29.7-27.92-51-7.64-8.7-16.42-12.77-25.84-12.82-22.56.47-43.15,25.49-43.35,25.75a3.83,3.83,0,0,1-5.56.45,4.32,4.32,0,0,1-.43-5.86c.93-1.15,23-28.1,49.14-28.65,11.82,0,22.58,5,31.82,15.47,19.88,22.63,25.29,40.06,29.63,54.07,3.07,9.88,5.28,17,11.63,23a4.33,4.33,0,0,1,1.05,4.58A4,4,0,0,1,327,1990.79Z"/><path class="cls-2" d="M198.44,1990.79H57.62a4.06,4.06,0,0,1-3.95-4.16V1838a4,4,0,1,1,7.89,0v144.42H198.44a4.17,4.17,0,0,1,0,8.33Z"/><path class="cls-2" d="M1249.28,1860.27c-25.21,0-48-11.67-63.21-32.63-14.8-20.36-20.16-46.29-13.68-66.06,13.75-41.85,42.15-53.07,69.64-63.91,21.27-8.4,41.36-16.33,55.39-37.76,20.06-30.62,11.49-53.07,4.82-63.54-2.49,12.18-8.79,33.34-23.64,44.26-9.33,6.85-20.48,8.59-33.17,5.16-17.33-4.68-29.21-20.8-33.46-45.38-7.66-44.22,10.38-111.4,52.87-142.86a3.72,3.72,0,0,1,4.08-.28,4.17,4.17,0,0,1,2.13,3.68v21.8a274.74,274.74,0,0,1,18.62-23.47v-189.7h-15.42a4.06,4.06,0,0,1-3.94-4.16v-64.49a4.3,4.3,0,0,1,.56-2.12l40-70.73v-93.57a4,4,0,1,1,7.89,0v94.71a4.2,4.2,0,0,1-.56,2.14l-40,70.71v59.18h11.47V1241.5a4.18,4.18,0,0,1,2.5-3.87,3.81,3.81,0,0,1,4.33,1l21.17,23.93a4.3,4.3,0,0,1,.74,4.49,4,4,0,0,1-3.62,2.5h-17.24V1461a4.33,4.33,0,0,1-1.12,2.91,273.88,273.88,0,0,0-25.37,33.32v98a4.26,4.26,0,0,1-1.29,3.07,4,4,0,0,1-3,1.08,30.72,30.72,0,0,1-20.38-12.32c-6.66-9.13-8.7-22-6.05-38.21,3.11-19,12.76-38.38,22.82-54.3V1469.4c-34.39,30.57-50.29,89.94-43.44,129.51,3.67,21.2,13.5,35,27.67,38.83,10.35,2.8,19.34,1.47,26.71-3.93,18.22-13.4,21.74-47.12,21.77-47.46a4.14,4.14,0,0,1,2.51-3.46,3.84,3.84,0,0,1,4.07.82c.34.32,33,32.76,1.47,80.93-15.44,23.57-37.65,32.34-59.12,40.82-27,10.64-52.42,20.68-65,58.84-5.56,16.92-.54,40.34,12.48,58.27,8.71,12,28.38,31.78,62.57,29.15,32.59-2.43,49.66-27.7,54.38-48.61,5-22-1.8-42-17.71-52-12.69-8-25.67-7.45-35.6,1.57s-14.11,23.76-10,34.51c4.69,12.14,13.47,15.53,19.51,14.8,4-.5,7-2.8,7.39-5.71,1.23-8.36-9.43-11.62-9.53-11.66a4.19,4.19,0,0,1-2.73-5.12,3.94,3.94,0,0,1,4.86-2.89c6,1.8,17,8.49,15.19,20.94-1,6.76-6.58,11.74-14.26,12.69-8.81,1.15-21.38-3.45-27.73-19.91-5.48-14.15-.39-32.64,12.11-44,12.66-11.48,29-12.36,44.79-2.42,18.67,11.78,27,35.75,21.32,61-5.33,23.66-24.63,52.24-61.49,55Q1252.36,1860.27,1249.28,1860.27Zm13.88-350c-7,12.57-12.86,26.44-15.07,39.9-2.25,13.83-.73,24.5,4.55,31.72a22.91,22.91,0,0,0,10.52,8v-79.6Zm34.38-249h8.16l-8.16-9.22Z"/><path class="cls-2" d="M1233.53,1829.54a3.71,3.71,0,0,1-2.55-1c-1.09-1-26.63-24.31-27.15-51.85-.25-12.53,4.69-23.81,14.66-33.58,21.45-21,38-26.68,51.24-31.26,9.37-3.24,16.14-5.57,21.82-12.26a3.79,3.79,0,0,1,4.33-1.11,4.14,4.14,0,0,1,2.54,3.88v45.21a4,4,0,1,1-7.89,0v-36.12c-5.48,3.87-11.59,6-18.35,8.31-12.54,4.33-28.15,9.72-48.34,29.46-8.25,8.07-12.33,17.26-12.13,27.31.44,23.84,24.15,45.47,24.39,45.7a4.32,4.32,0,0,1,.43,5.86A3.84,3.84,0,0,1,1233.53,1829.54Z"/><path class="cls-2" d="M1267.09,1961.89H1113.4a4.17,4.17,0,0,1,0-8.33h149.76v-158a4,4,0,1,1,7.89,0v162.17A4.07,4.07,0,0,1,1267.09,1961.89Z"/><path class="cls-2" d="M1107.63,2012.21c-18.2,0-34.27-8.79-43.1-24.37-9.44-16.67-8.61-33.9,2.29-47.26,10.73-13.19,28.27-18.58,41.67-12.8,15.61,6.72,19.92,20,18.88,29.26-.9,8.1-5.63,14-12,15-11.75,1.93-18.14-9.64-19.85-16a4.19,4.19,0,0,1,2.73-5.12,3.9,3.9,0,0,1,4.86,2.85c.13.47,3.21,11.33,11.06,10.08,2.77-.46,4.93-3.59,5.41-7.81.72-6.41-2.53-15.64-14-20.59-10.19-4.38-24.26.13-32.72,10.51s-9.07,24.18-1.48,37.57c9.49,16.78,28.36,23.94,49.26,18.68,19.8-5,43.76-23,46.07-57.38,2.43-36.06-16.28-56.85-27.64-66-17-13.75-39.18-19-55.22-13.16-36.15,13.21-45.67,40.08-55.75,68.53-8,22.65-16.34,46.08-38.69,62.37-45.64,33.29-76.39-1.18-76.7-1.54a4.35,4.35,0,0,1-.78-4.29,4,4,0,0,1,3.28-2.65c.32,0,32.34-3.8,45-23,5.12-7.77,6.37-17.25,3.72-28.17-3.64-15-16.7-25.33-36.8-29.2-37.48-7.18-93.75,9.56-122.73,45.85H828.1c15.08-10.62,33.41-20.81,51.45-24.09,15.37-2.78,27.56-.63,36.22,6.39a33.46,33.46,0,0,1,11.67,21.5,4.29,4.29,0,0,1-1,3.18,3.89,3.89,0,0,1-2.91,1.35H830.65a264,264,0,0,0-31.57,26.78,3.85,3.85,0,0,1-2.76,1.18H641.75a4.17,4.17,0,0,1,0-8.33h153A267.66,267.66,0,0,1,817,1961.88H796.32a3.91,3.91,0,0,1-3.5-2.25,4.35,4.35,0,0,1,.27-4.3c29.81-44.84,93.48-63.9,135.39-55.8,23.31,4.49,38.58,17,43,35.32,3.24,13.37,1.6,25.15-4.9,35-10.33,15.66-30.34,22.31-41.89,24.94,10,7,31.32,16,60.17-5.08,20.3-14.8,27.82-36,35.77-58.44,10.28-29,20.91-59,60.57-73.48,18.74-6.82,43.3-1.18,62.61,14.41,21.47,17.38,32.66,44.06,30.7,73.23-2.62,38.88-29.71,59.26-52.12,64.88A59,59,0,0,1,1107.63,2012.21Zm-264.56-58.64h75.41a24.31,24.31,0,0,0-7.62-11.18c-6.85-5.49-16.92-7.1-30-4.71C868.13,1940,855,1946.22,843.07,1953.57Z"/><path class="cls-2" d="M1067.92,1990.79h-42.85a4,4,0,0,1-3.67-2.68,4.33,4.33,0,0,1,1.05-4.58c6.35-6,8.56-13.14,11.62-23,4.34-14,9.75-31.44,29.63-54.07,9.24-10.52,20.06-15.52,31.82-15.47,26.11.55,48.23,27.5,49.14,28.65a4.3,4.3,0,0,1-.43,5.86,3.82,3.82,0,0,1-5.56-.45c-.19-.26-20.79-25.28-43.34-25.75-9.53,0-18.21,4.12-25.85,12.82-18.7,21.29-23.81,37.76-27.91,51-2.22,7.14-4.22,13.59-7.88,19.37h34.22a4.17,4.17,0,0,1,0,8.33Z"/><path class="cls-2" d="M1294.48,1990.79H1153.66a4.17,4.17,0,0,1,0-8.33h136.87V1838a4,4,0,1,1,7.9,0v148.59A4.06,4.06,0,0,1,1294.48,1990.79Z"/><path class="cls-2" d="M676,1696.42a3.75,3.75,0,0,1-1.59-.35L406.31,1570.62a4.18,4.18,0,0,1-2.34-3.8V502.25a4.19,4.19,0,0,1,2.34-3.81L674.44,373a3.78,3.78,0,0,1,3.19,0L945.78,498.44a4.18,4.18,0,0,1,2.35,3.81V1566.82a4.17,4.17,0,0,1-2.35,3.8L677.63,1696.07A3.69,3.69,0,0,1,676,1696.42ZM411.85,1564.11,676,1687.72l264.21-123.61V505L676,381.34,411.85,505Z"/><path class="cls-2" d="M676.05,1921.12a3.89,3.89,0,0,1-1.6-.36l-156.2-73.09a4.19,4.19,0,0,1-2.35-3.8v-654a4,4,0,1,1,7.9,0v651.33l152.25,71.24,152.26-71.24V1189.84a4,4,0,1,1,7.89,0v654a4.17,4.17,0,0,1-2.35,3.8l-156.21,73.09A3.69,3.69,0,0,1,676.05,1921.12Z"/><path class="cls-2" d="M832.25,883.39a4.05,4.05,0,0,1-4-4.16V227.88L676,156.65,523.79,227.88V879.19a4,4,0,1,1-7.89,0v-654a4.16,4.16,0,0,1,2.34-3.8l156.2-73.09a3.71,3.71,0,0,1,3.19,0l156.21,73.09a4.17,4.17,0,0,1,2.35,3.8V879.23A4.06,4.06,0,0,1,832.25,883.39Z"/><path class="cls-2" d="M676,1532.75a3.75,3.75,0,0,1-1.77-.45l-361.42-192a4.22,4.22,0,0,1-2.17-3.72V732.44a4.19,4.19,0,0,1,2.17-3.71l361.42-192a3.76,3.76,0,0,1,3.54,0l361.46,192a4.2,4.2,0,0,1,2.18,3.71v604.18a4.21,4.21,0,0,1-2.18,3.72l-361.46,192A3.67,3.67,0,0,1,676,1532.75ZM318.55,1334.06,676,1523.93l357.52-189.87V735L676,545.12,318.55,735Z"/><path class="cls-2" d="M676.05,1263.44c-119.62,0-216.94-102.68-216.94-228.91s97.31-228.91,216.94-228.91S893,908.3,893,1034.53,795.67,1263.44,676.05,1263.44Zm0-449.5c-115.27,0-209.06,99-209.06,220.59s93.79,220.59,209.06,220.59,209.06-98.95,209.06-220.59S791.32,813.94,676.05,813.94Z"/><path d="M676,1272H804.31v-12.13c.36-5,10.7-12.84,18.2-16.77s5.7-9.63,5.35-11.77-20-11.42-20-11.42c10.34-6.78,10-28.54,10-28.54,1.07-18.56-22.12-32.11-22.12-32.11.35-1.79,3.21-7.5-2.15-10s-21.76-18.56-21.76-18.56C784,1118.55,769,1110,769,1110c3.56-12.49-12.67-15.88-12.67-15.88-34.79-13.38-46.56-105.08-37.64-104s12.13-3.21,12.84-6.42-3.92-7.58-3.92-7.58c.72-8.29,11.77-15.25,19.83-17.39s5.5-7.14,5.5-7.14c-.35-5.71-21.76-13.91-21.76-13.91s1.78-3.93,0-11.42c-.88-3.69-14.19-5-27.49-5.47C729.15,910.3,747,885.91,747,857.48c0-38-31.87-68.76-71.18-68.76s-71.18,30.79-71.18,68.76c0,28.44,17.88,52.84,43.37,63.31-13.17.44-26.23,1.8-27.1,5.45-1.79,7.49,0,11.42,0,11.42s-21.41,8.2-21.77,13.91c0,0-2.56,5,5.5,7.14s19.12,9.1,19.83,17.39c0,0-4.63,4.37-3.92,7.58s3.92,7.49,12.84,6.42-2.85,90.63-37.64,104c0,0-16.23,3.39-12.66,15.88,0,0-15,8.56-2.86,20.69,0,0-16.41,16.06-21.76,18.56s-2.5,8.2-2.14,10c0,0-23.19,13.55-22.12,32.11,0,0-.36,21.76,10,28.54,0,0-19.62,9.28-20,11.42s-2.13,7.85,5.36,11.77,17.84,11.77,18.19,16.77V1272Z"/></g></svg>