<svg xmlns="http://www.w3.org/2000/svg" viewBox="0 0 619.07 595.44"><defs><style>.cls-1{fill:#080808;}</style></defs><g id="black"><path class="cls-1" d="M428.76,538c-.7-.17-7-5.4-7-5.4,3.49-3.32,9.94-14.84,9.94-28.44s-13.6-23.38-13.6-23.38c.69-7.86-6.81-12.57-10.12-14.83s-16.75-19.72-16.75-19.72V431.87c3.66-.87,10.29-3.66,10.29-10.29s-7.15-8-7.15-8v-1.92c.52-12-13.61-12.21-13.61-12.21.87-1.74-3.55-4.13-3.55-4.13C340,362.72,348.44,227.68,348.44,227.68s11.93.12,14.95,0,3.49-.93,3.72-3.49-8.26-8.72-8.26-8.72-.35,7.21-.35,0,2-12.1,5.7-13.73,20.71-5.35,22.22-5.7.7-3.14.7-3.14c-1.52-2.91-21.64-16.05-21.64-16.05s3-2.44,3-10.35S353,153.93,353,153.93v-6.45a4.26,4.26,0,0,0,4.48-4.48c0-3.14-4.19-3.95-4.19-3.95,1.16-6.17,22.8-62.15,26-66.51s8-14.48,6.45-16.75-12.12,2.79-12.12,2.79c1-3.31-1.75-3.4-1.75-3.4-7-2.44-25.47,6.63-25.47,6.63-5.54-7-18.05-12.75-27-16.15a13,13,0,1,0-19.95.05c-8.9,3.4-21.32,9.1-26.84,16.1,0,0-18.49-9.07-25.47-6.63,0,0-2.79.09-1.75,3.4,0,0-10.55-5.06-12.12-2.79s3.23,12.39,6.45,16.75,24.87,60.34,26,66.51c0,0-4.19.81-4.19,3.95a4.26,4.26,0,0,0,4.48,4.48v6.45s-15.53,4.66-15.53,12.57,3,10.35,3,10.35S233.46,190,232,192.9c0,0-.81,2.79.7,3.14s18.49,4.07,22.22,5.7,5.7,6.51,5.7,13.73-.35,0-.35,0-8.49,6.16-8.26,8.72.7,3.37,3.72,3.49,14.95,0,14.95,0,8.43,135-28.79,167.61c0,0-4.42,2.39-3.55,4.13,0,0-14.13.17-13.61,12.21v1.92s-7.15,1.4-7.15,8,6.63,9.42,10.29,10.29v14.31s-13.43,17.45-16.75,19.72-10.81,7-10.12,14.83c0,0-13.61,9.77-13.61,23.38s6.46,25.12,9.95,28.44c0,0-6.28,5.23-7,5.4s-9.42,5.94-9.42,11.17c0,0,3.14,5.76,8.55,8.55s4.53,3,4.53,3v10.53H425.1V560.63s-.88-.17,4.53-3,8.55-8.55,8.55-8.55C438.18,543.89,429.46,538.13,428.76,538Z"/></g></svg>