<?xml version="1.0" encoding="utf-8"?>
<!-- Generator: Adobe Illustrator 25.2.1, SVG Export Plug-In . SVG Version: 6.00 Build 0)  -->
<svg version="1.1" id="Capa_1" xmlns="http://www.w3.org/2000/svg" xmlns:xlink="http://www.w3.org/1999/xlink" x="0px" y="0px"
	 viewBox="0 0 1280 1203" style="enable-background:new 0 0 1280 1203;" xml:space="preserve">
<style type="text/css">
	.st0{fill:#BA2323;}
</style>
<g transform="translate(0.000000,1203.000000) scale(0.100000,-0.100000)">
	<path class="st0" d="M6268,12020c-249-45-490-211-622-428c-127-210-152-500-63-745c59-161,187-316,357-430l86-58l-168-967
		c-233-1342-460-2627-519-2940c-27-144-49-267-49-272c0-17-17-11-23,8c-3,9-48,136-100,282c-204,569-1187,3413-1187,3434
		c0,7,29,36,65,65c102,83,203,230,266,388c38,94,52,228,39,378c-10,116-21,150-90,284c-84,164-197,281-362,376
		c-326,189-718,137-1009-133c-337-313-372-802-84-1168c71-89,156-162,272-230c51-30,98-64,104-76c16-29,13-108-26-801
		c-83-1476-97-1718-135-2380c-22-384-40-714-40-734s-3-34-6-30c-6,6-591,1205-891,1827c-356,739-583,1231-585,1269
		c-1,9,28,60,65,113c204,300,247,570,136,858c-105,273-295,447-571,522c-71,19-108,23-248,23s-177-4-248-23c-276-75-466-248-572-524
		c-164-425,37-915,445-1081c33-13,104-39,158-57c76-26,98-38,102-54c2-12,54-424,115-916c279-2244,435-3429,460-3488
		c6-13,227-289,493-615c366-449,489-606,509-652c14-33,119-273,232-533l206-473l-165-379c-207-478-317-752-323-811
		c-9-90,54-165,222-264C3028,283,3746,80,4530,15c328-27,3508-15,3911,15c515,38,1211,230,1670,460c306,154,408,246,397,359
		c-6,59-116,333-323,811l-165,379l206,473c113,260,218,500,232,533c20,46,143,203,509,652c266,326,487,602,493,615
		c25,59,181,1244,460,3488c61,492,113,904,115,916c4,16,26,28,102,54c221,75,322,131,419,232c232,241,304,596,184,906
		c-106,276-296,449-572,524c-71,19-108,23-248,23s-177-4-248-23c-276-75-466-249-571-522c-111-288-68-558,136-858
		c37-53,66-104,65-113c-2-38-229-530-585-1269c-300-622-885-1821-891-1827c-3-4-6,10-6,30s-18,350-40,734c-22,384-54,937-70,1228
		c-115,2028-109,1919-91,1953c6,12,53,46,104,76c171,101,286,220,371,386c70,135,87,198,93,335c7,149-7,239-52,345
		c-55,133-112,218-210,315c-305,304-734,349-1085,112c-160-108-288-268-351-439c-25-68-49-204-49-278c0-240,133-523,316-672
		c35-28,64-57,64-64c0-21-983-2865-1187-3434c-52-146-97-273-100-282c-6-19-23-25-23-8c0,5-22,128-49,272c-59,313-286,1598-519,2940
		l-168,967l86,58c277,186,410,433,410,758c0,137-17,209-77,332c-121,248-323,422-575,493C6536,12024,6346,12035,6268,12020z"/>
</g>
</svg>
